<svg width="18" height="18" viewBox="0 0 18 18" fill="none" xmlns="http://www.w3.org/2000/svg">
<g clip-path="url(#clip0_1494_1333)">
<path d="M15.6974 5.475C15.4424 4.0425 14.1974 3 12.7424 3H12.6224C12.7049 2.7675 12.7499 2.5125 12.7499 2.25C12.7499 1.0125 11.7374 0 10.4999 0H7.49992C6.26242 0 5.24992 1.0125 5.24992 2.25C5.24992 2.5125 5.29492 2.7675 5.37742 3H5.25742C3.80242 3 2.55742 4.0425 2.30242 5.475L0.607422 15H5.99992C5.99992 16.6575 7.34242 18 8.99992 18C10.6574 18 11.9999 16.6575 11.9999 15H17.3924L15.6899 5.475H15.6974ZM6.74992 2.25C6.74992 1.8375 7.08742 1.5 7.49992 1.5H10.4999C10.9124 1.5 11.2499 1.8375 11.2499 2.25C11.2499 2.6625 10.9124 3 10.4999 3H7.49992C7.08742 3 6.74992 2.6625 6.74992 2.25ZM8.99992 16.5C8.17492 16.5 7.49992 15.825 7.49992 15H10.4999C10.4999 15.825 9.82492 16.5 8.99992 16.5ZM2.39242 13.5L3.77992 5.7375C3.90742 5.0175 4.52992 4.5 5.25742 4.5H12.7424C13.4699 4.5 14.0924 5.0175 14.2199 5.7375L15.6074 13.5H2.39242Z" fill="currentColor"/>
</g>
<defs>
<clipPath id="clip0_1494_1333">
<rect width="18" height="18" fill="white"/>
</clipPath>
</defs>
</svg>
