<svg width="24" height="25" viewBox="0 0 24 25" fill="none" xmlns="http://www.w3.org/2000/svg">
<path d="M23.8211 11.6807C22.855 9.58544 21.4399 7.72825 19.6761 6.24072L22.7081 3.20872L21.2931 1.79272L18.0001 5.08272C16.1775 4.02844 14.1056 3.48182 12.0001 3.49972C4.50012 3.49972 1.05712 9.76072 0.179115 11.6807C0.0612537 11.938 0.000244141 12.2177 0.000244141 12.5007C0.000244141 12.7837 0.0612537 13.0634 0.179115 13.3207C1.14525 15.416 2.56034 17.2732 4.32412 18.7607L1.29312 21.7927L2.70712 23.2067L6.00012 19.9167C7.82275 20.971 9.8946 21.5176 12.0001 21.4997C19.5001 21.4997 22.9431 15.2387 23.8211 13.3187C23.9387 13.0617 23.9996 12.7824 23.9996 12.4997C23.9996 12.2171 23.9387 11.9377 23.8211 11.6807ZM2.00012 12.5107C2.75012 10.8657 5.69312 5.49972 12.0001 5.49972C13.5697 5.49055 15.1188 5.85673 16.5181 6.56772L14.7531 8.33272C13.793 7.69533 12.642 7.40972 11.4953 7.52437C10.3487 7.63902 9.27698 8.14686 8.46212 8.96173C7.64725 9.77659 7.13941 10.8483 7.02476 11.995C6.91011 13.1416 7.19572 14.2927 7.83312 15.2527L5.75412 17.3317C4.15449 16.0291 2.87099 14.3808 2.00012 12.5107ZM15.0001 12.4997C15.0001 13.2954 14.684 14.0584 14.1214 14.621C13.5588 15.1837 12.7958 15.4997 12.0001 15.4997C11.5546 15.498 11.1153 15.3954 10.7151 15.1997L14.7001 11.2147C14.8958 11.6149 14.9984 12.0542 15.0001 12.4997ZM9.00012 12.4997C9.00012 11.7041 9.31619 10.941 9.8788 10.3784C10.4414 9.81579 11.2045 9.49972 12.0001 9.49972C12.4456 9.50145 12.8849 9.60401 13.2851 9.79972L9.30012 13.7847C9.10441 13.3845 9.00184 12.9452 9.00012 12.4997ZM12.0001 19.4997C10.4305 19.5089 8.88147 19.1427 7.48212 18.4317L9.24712 16.6667C10.2072 17.3041 11.3582 17.5897 12.5049 17.4751C13.6516 17.3604 14.7233 16.8526 15.5381 16.0377C16.353 15.2229 16.8608 14.1512 16.9755 13.0045C17.0901 11.8578 16.8045 10.7068 16.1671 9.74672L18.2451 7.66873C19.8479 8.97254 21.1321 10.6248 22.0001 12.4997C21.2361 14.1567 18.2921 19.4997 12.0001 19.4997Z" fill="white"/>
</svg>
