<svg width="24" height="24" viewBox="0 0 24 24" fill="none" xmlns="http://www.w3.org/2000/svg">
<g clip-path="url(#clip0_1258_9219)">
<path d="M20.9301 7.3C20.5901 5.39 18.9301 4 16.9901 4H16.8301C16.9401 3.69 17.0001 3.35 17.0001 3C17.0001 1.35 15.6501 0 14.0001 0H10.0001C8.35006 0 7.00006 1.35 7.00006 3C7.00006 3.35 7.06006 3.69 7.17006 4H7.01006C5.07006 4 3.41006 5.39 3.07006 7.3L0.810059 20H8.00006C8.00006 22.21 9.79006 24 12.0001 24C14.2101 24 16.0001 22.21 16.0001 20H23.1901L20.9201 7.3H20.9301ZM9.00006 3C9.00006 2.45 9.45006 2 10.0001 2H14.0001C14.5501 2 15.0001 2.45 15.0001 3C15.0001 3.55 14.5501 4 14.0001 4H10.0001C9.45006 4 9.00006 3.55 9.00006 3ZM12.0001 22C10.9001 22 10.0001 21.1 10.0001 20H14.0001C14.0001 21.1 13.1001 22 12.0001 22ZM3.19006 18L5.04006 7.65C5.21006 6.69 6.04006 6 7.01006 6H16.9901C17.9601 6 18.7901 6.69 18.9601 7.65L20.8101 18H3.19006Z" fill="white"/>
</g>
<defs>
<clipPath id="clip0_1258_9219">
<rect width="24" height="24" fill="white"/>
</clipPath>
</defs>
</svg>
