<svg width="24" height="24" viewBox="0 0 24 24" fill="none" xmlns="http://www.w3.org/2000/svg">
<g clip-path="url(#clip0_2486_15796)">
<path d="M2 21.0009V3.00092C2 2.7357 2.10536 2.48135 2.29289 2.29381C2.48043 2.10627 2.73478 2.00092 3 2.00092H8V0.000915527H3C2.20435 0.000915527 1.44129 0.316986 0.87868 0.879595C0.31607 1.4422 0 2.20527 0 3.00092L0 21.0009C0 21.7966 0.31607 22.5596 0.87868 23.1222C1.44129 23.6848 2.20435 24.0009 3 24.0009H8V22.0009H3C2.73478 22.0009 2.48043 21.8956 2.29289 21.708C2.10536 21.5205 2 21.2661 2 21.0009Z" fill="black"/>
<path d="M24.0004 13.0009V11.0009L7.55638 11.0319L11.8794 6.70794L10.4634 5.29395L5.87738 9.87994C5.31497 10.4425 4.99902 11.2055 4.99902 12.0009C4.99902 12.7964 5.31497 13.5594 5.87738 14.1219L10.4634 18.7079L11.8774 17.2939L7.61438 13.0309L24.0004 13.0009Z" fill="black"/>
</g>
<defs>
<clipPath id="clip0_2486_15796">
<rect width="24" height="24" fill="white" transform="translate(0 0.000915527)"/>
</clipPath>
</defs>
</svg>
