<svg width="24" height="24" viewBox="0 0 24 24" fill="none" xmlns="http://www.w3.org/2000/svg">
<g clip-path="url(#clip0_3056_2982)">
<path d="M18.5 9.84996V3.55996L12.99 0.409961C12.38 0.0599609 11.62 0.0599609 11.01 0.409961L5.5 3.55996V9.84996L0 12.99V20.44L5.51 23.59C5.82 23.76 6.16 23.85 6.5 23.85C6.84 23.85 7.19 23.76 7.49 23.59L12 21.01L16.51 23.59C16.82 23.76 17.16 23.85 17.5 23.85C17.84 23.85 18.19 23.76 18.49 23.59L24 20.44V12.99L18.5 9.84996ZM17.5 15.56L14.02 13.57L17.5 11.58L20.98 13.57L17.5 15.56ZM7.5 5.85996L11 7.85996V11.84L7.5 9.83996V5.85996ZM13 11.84V7.85996L16.5 5.85996V9.83996L13 11.84ZM9.98 13.57L6.5 15.56L3.02 13.57L6.5 11.58L9.98 13.57ZM7.5 17.29L11 15.29V19.27L7.5 21.27V17.29ZM12 2.14996L15.48 4.13996L12 6.12996L8.52 4.13996L12 2.14996ZM2 15.3L5.5 17.3V21.28L2 19.28V15.3ZM13 15.3L16.5 17.3V21.28L13 19.28V15.3ZM18.5 21.28V17.3L22 15.3V19.28L18.5 21.28Z" fill="white"/>
</g>
<defs>
<clipPath id="clip0_3056_2982">
<rect width="24" height="24" fill="white"/>
</clipPath>
</defs>
</svg>
