<svg width="18" height="18" viewBox="0 0 18 18" fill="none" xmlns="http://www.w3.org/2000/svg">
<g clip-path="url(#clip0_1432_893)">
<path d="M1.5 15.75V2.25C1.5 2.05109 1.57902 1.86032 1.71967 1.71967C1.86032 1.57902 2.05109 1.5 2.25 1.5H6V0H2.25C1.65326 0 1.08097 0.237053 0.65901 0.65901C0.237053 1.08097 0 1.65326 0 2.25L0 15.75C0 16.3467 0.237053 16.919 0.65901 17.341C1.08097 17.7629 1.65326 18 2.25 18H6V16.5H2.25C2.05109 16.5 1.86032 16.421 1.71967 16.2803C1.57902 16.1397 1.5 15.9489 1.5 15.75Z" fill="#BFBFBF"/>
<path d="M17.3422 7.40923L13.9028 3.96973L12.8422 5.03023L16.0402 8.22823L3.75 8.24998V9.74998L16.0823 9.72823L12.8407 12.9697L13.9012 14.0302L17.3407 10.5907C17.7628 10.169 18 9.59691 18.0003 9.00029C18.0006 8.40367 17.7639 7.83136 17.3422 7.40923Z" fill="#BFBFBF"/>
</g>
<defs>
<clipPath id="clip0_1432_893">
<rect width="18" height="18" fill="white"/>
</clipPath>
</defs>
</svg>
