<svg width="24" height="24" viewBox="0 0 24 24" fill="none" xmlns="http://www.w3.org/2000/svg">
<path d="M23.8211 11.181C22.9431 9.261 19.5001 3 12.0001 3C4.50012 3 1.05712 9.261 0.179115 11.181C0.0612537 11.4383 0.000244141 11.718 0.000244141 12.001C0.000244141 12.284 0.0612537 12.5637 0.179115 12.821C1.05712 14.739 4.50012 21 12.0001 21C19.5001 21 22.9431 14.739 23.8211 12.819C23.9387 12.562 23.9996 12.2827 23.9996 12C23.9996 11.7173 23.9387 11.438 23.8211 11.181ZM12.0001 19C5.69312 19 2.75012 13.634 2.00012 12.011C2.75012 10.366 5.69312 5 12.0001 5C18.2921 5 21.2361 10.343 22.0001 12C21.2361 13.657 18.2921 19 12.0001 19Z" fill="currentColor"/>
<path d="M12 7C11.0111 7 10.0444 7.29324 9.22215 7.84265C8.39991 8.39206 7.75904 9.17295 7.3806 10.0866C7.00217 11.0002 6.90315 12.0055 7.09608 12.9755C7.289 13.9454 7.76521 14.8363 8.46447 15.5355C9.16373 16.2348 10.0546 16.711 11.0246 16.9039C11.9945 17.0969 12.9998 16.9978 13.9134 16.6194C14.827 16.241 15.6079 15.6001 16.1574 14.7779C16.7068 13.9556 17 12.9889 17 12C16.9984 10.6744 16.4711 9.40356 15.5338 8.46622C14.5964 7.52888 13.3256 7.00159 12 7ZM12 15C11.4067 15 10.8266 14.8241 10.3333 14.4944C9.83994 14.1648 9.45543 13.6962 9.22836 13.1481C9.0013 12.5999 8.94189 11.9967 9.05765 11.4147C9.1734 10.8328 9.45912 10.2982 9.87868 9.87868C10.2982 9.45912 10.8328 9.1734 11.4147 9.05764C11.9967 8.94189 12.5999 9.0013 13.1481 9.22836C13.6962 9.45542 14.1648 9.83994 14.4944 10.3333C14.8241 10.8266 15 11.4067 15 12C15 12.7957 14.6839 13.5587 14.1213 14.1213C13.5587 14.6839 12.7957 15 12 15Z" fill="currentColor"/>
</svg>
