<svg width="24" height="24" viewBox="0 0 24 24" fill="none" xmlns="http://www.w3.org/2000/svg">
<g clip-path="url(#clip0_1750_7218)">
<path d="M2 3C2 2.449 2.449 2 3 2H11V9H18V10.005C18.586 9.573 19.272 9.272 20 9.128V7.586L12.414 0H3C1.346 0 0 1.346 0 3V24H9V22H2V3ZM13 3.414L16.586 7H13V3.414ZM23.122 11.879C21.988 10.745 20.012 10.745 18.879 11.879L11 19.757V24H15.243L23.121 16.122C23.688 15.555 24 14.802 24 14C24 13.198 23.688 12.445 23.122 11.879ZM21.707 14.707L14.415 22H13V20.585L20.293 13.293C20.67 12.915 21.329 12.915 21.707 13.293C21.896 13.481 22 13.732 22 14C22 14.268 21.896 14.518 21.707 14.707Z" fill="black"/>
</g>
<defs>
<clipPath id="clip0_1750_7218">
<rect width="24" height="24" fill="white"/>
</clipPath>
</defs>
</svg>
