<svg width="50" height="32" viewBox="0 0 50 32" fill="none" xmlns="http://www.w3.org/2000/svg">
<mask id="path-1-inside-1_1246_12849" fill="white">
<path d="M0 0H50V32H0V0Z"/>
</mask>
<path d="M0 0H50V32H0V0Z" fill="black"/>
<path d="M4 32V0H-4V32H4Z" fill="#04FDF9" mask="url(#path-1-inside-1_1246_12849)"/>
<g clip-path="url(#clip0_1246_12849)">
<path d="M35.5608 11.1895L25.675 21.0768C25.2689 21.5123 25.0476 22.0885 25.058 22.684C25.0683 23.2794 25.3094 23.8476 25.7305 24.2688C26.1516 24.69 26.7197 24.9312 27.3152 24.9417C27.9106 24.9522 28.4869 24.7311 28.9225 24.325L38.8105 14.4393L35.5608 11.1895ZM36.6895 14.4393L34.75 16.3788L33.625 15.25L35.5645 13.3105L36.6895 14.4393ZM27.862 23.266C27.7104 23.4105 27.509 23.4911 27.2995 23.4911C27.0901 23.4911 26.8887 23.4105 26.737 23.266C26.5881 23.1167 26.5045 22.9144 26.5045 22.7035C26.5045 22.4926 26.5881 22.2903 26.737 22.141L32.5638 16.3135L33.6925 17.4423L27.862 23.266ZM40.9998 17.971L43 18.9715L40.9998 19.975L40 21.9715L39.0003 19.975L37 18.9715L39.0003 17.971L40 15.9715L40.9998 17.971ZM30.0003 10.9998L28 10L30.0003 9.00025L31 7L31.9998 9.00025L34 10L31.9998 10.9998L31 13L30.0003 10.9998ZM39.4998 10.5003L37.75 9.625L39.4998 8.74975L40.375 7L41.2503 8.74975L43 9.625L41.2503 10.5003L40.375 12.25L39.4998 10.5003Z" fill="#999999"/>
</g>
<defs>
<clipPath id="clip0_1246_12849">
<rect width="18" height="18" fill="white" transform="translate(25 7)"/>
</clipPath>
</defs>
</svg>
