<svg width="18" height="18" viewBox="0 0 18 18" fill="none" xmlns="http://www.w3.org/2000/svg">
<g clip-path="url(#clip0_1494_4640)">
<path d="M8.99989 0.00537109C7.51597 0.00553859 6.06546 0.445898 4.8319 1.27072C3.59834 2.09555 2.63719 3.26777 2.07007 4.63904C1.50295 6.0103 1.35536 7.51899 1.64597 8.97417C1.93657 10.4293 2.65232 11.7656 3.70264 12.8139L7.47139 16.5001H3.74989V18.0001H14.2499V16.5001H10.5284L14.3031 12.8079C15.3518 11.7589 16.0658 10.4226 16.3551 8.96793C16.6443 7.51321 16.4957 6.0054 15.9281 4.63512C15.3605 3.26484 14.3993 2.09362 13.1661 1.26955C11.9329 0.445471 10.4831 0.00553949 8.99989 0.00537109ZM13.2486 11.7414L8.99989 15.9001L4.75714 11.7474C3.91831 10.9085 3.34699 9.83979 3.11537 8.67631C2.88374 7.51283 3.00223 6.30679 3.45584 5.21063C3.90945 4.11446 4.67782 3.17737 5.66386 2.51777C6.6499 1.85818 7.80934 1.50568 8.99565 1.50485C10.182 1.50401 11.3419 1.85486 12.3289 2.51306C13.3158 3.17126 14.0855 4.10727 14.5407 5.2028C14.9959 6.29832 15.116 7.50418 14.8861 8.66799C14.6561 9.8318 14.0863 10.9013 13.2486 11.7414ZM5.24989 4.78662V9.46362L8.99989 11.3386L12.7499 9.46362V4.78662L8.99989 2.91162L5.24989 4.78662ZM11.2499 8.53662L8.99989 9.66162L6.74989 8.53662V5.71362L6.83839 5.66937L8.99989 6.75012L11.1614 5.66937L11.2499 5.71362V8.53662Z" fill="currentColor"/>
</g>
<defs>
<clipPath id="clip0_1494_4640">
<rect width="18" height="18" fill="white"/>
</clipPath>
</defs>
</svg>
