<svg width="24" height="24" viewBox="0 0 24 24" fill="none" xmlns="http://www.w3.org/2000/svg">
<path d="M22.0001 10.007C22.0001 8.0292 21.4136 6.09583 20.3148 4.45136C19.2159 2.8069 17.6542 1.52519 15.8269 0.768327C13.9997 0.0114623 11.989 -0.186571 10.0492 0.19927C8.10944 0.585111 6.32763 1.5375 4.9291 2.93599C4.00001 3.86523 3.26317 4.96847 2.7607 6.18264C2.25824 7.39682 1.99999 8.69812 2.00073 10.0122C2.00148 11.3262 2.26119 12.6272 2.76503 13.8408C3.26887 15.0544 4.00696 16.1568 4.9371 17.085L9.9621 22H5.0001V24H19.0001V22H14.0381L19.0711 17.077C20.0026 16.1508 20.7411 15.049 21.2439 13.8354C21.7466 12.6218 22.0037 11.3206 22.0001 10.007ZM17.0001 12.618L12.0001 15.118L7.0001 12.618V6.38199L12.0001 3.88199L17.0001 6.38199V12.618ZM12.0001 8.99999L15.0001 7.49999V11.382L12.0001 12.882L9.0001 11.382V7.49999L12.0001 8.99999Z" fill="currentColor"/>
</svg>
