<svg width="24" height="24" viewBox="0 0 24 24" fill="none" xmlns="http://www.w3.org/2000/svg">
<g clip-path="url(#clip0_1494_9944)">
<path d="M14.0809 5.586L0.899887 18.769C0.358306 19.3497 0.0633283 20.118 0.0771231 20.912C0.0909179 21.7059 0.412407 22.4635 0.973835 23.0251C1.53526 23.5866 2.29278 23.9083 3.08672 23.9223C3.88067 23.9362 4.64904 23.6415 5.22989 23.1L18.4139 9.919L14.0809 5.586ZM15.5859 9.919L12.9999 12.505L11.4999 11L14.0859 8.414L15.5859 9.919ZM3.81589 21.688C3.61373 21.8807 3.34517 21.9882 3.06589 21.9882C2.78661 21.9882 2.51804 21.8807 2.31589 21.688C2.1173 21.4889 2.00578 21.2192 2.00578 20.938C2.00578 20.6568 2.1173 20.3871 2.31589 20.188L10.0849 12.418L11.5899 13.923L3.81589 21.688ZM21.3329 14.628L23.9999 15.962L21.3329 17.3L19.9999 19.962L18.6669 17.3L15.9999 15.962L18.6669 14.628L19.9999 11.962L21.3329 14.628ZM6.66689 5.333L3.99989 4L6.66689 2.667L7.99989 0L9.33289 2.667L11.9999 4L9.33289 5.333L7.99989 8L6.66689 5.333ZM19.3329 4.667L16.9999 3.5L19.3329 2.333L20.4999 0L21.6669 2.333L23.9999 3.5L21.6669 4.667L20.4999 7L19.3329 4.667Z" fill="black"/>
</g>
<defs>
<clipPath id="clip0_1494_9944">
<rect width="24" height="24" fill="white"/>
</clipPath>
</defs>
</svg>
