<svg width="24" height="24" viewBox="0 0 24 24" fill="none" xmlns="http://www.w3.org/2000/svg">
<g clip-path="url(#clip0_563_2209)">
<path d="M19.134 3.4924C18.2081 2.54987 17.1047 1.80015 15.8874 1.28654C14.6702 0.772941 13.3632 0.505641 12.042 0.500088C10.7209 0.494536 9.41168 0.75084 8.19014 1.25419C6.9686 1.75755 5.85891 2.49797 4.92518 3.43268C3.99146 4.3674 3.25221 5.47787 2.75016 6.69995C2.2481 7.92202 1.99318 9.23147 2.00014 10.5526C2.00709 11.8738 2.27578 13.1805 2.79067 14.3972C3.30557 15.6139 4.05646 16.7166 4.99997 17.6414L12.063 24.5504L19.134 17.6334C21.009 15.7581 22.0623 13.2148 22.0623 10.5629C22.0623 7.91101 21.009 5.36772 19.134 3.4924ZM17.063 14.5564H7.06297V9.9654C7.06413 9.58125 7.15334 9.20248 7.32375 8.8582C7.49415 8.51392 7.74122 8.21328 8.04597 7.9794L10.546 6.0694C10.9823 5.73761 11.5153 5.55796 12.0635 5.55796C12.6116 5.55796 13.1447 5.73761 13.581 6.0694L16.081 7.9794C16.3854 8.21349 16.6322 8.51419 16.8024 8.85844C16.9727 9.2027 17.0618 9.58136 17.063 9.9654V14.5564ZM14.863 9.5694C14.9251 9.61597 14.9755 9.67637 15.0102 9.74579C15.0449 9.81522 15.063 9.89178 15.063 9.9694V12.5564H13.063V10.5564H11.063V12.5564H9.06297V9.9654C9.06297 9.88778 9.08104 9.81122 9.11576 9.74179C9.15047 9.67237 9.20087 9.61197 9.26297 9.5654L11.763 7.6564C11.8502 7.58958 11.9571 7.55337 12.067 7.55337C12.1769 7.55337 12.2837 7.58958 12.371 7.6564L14.863 9.5694Z" fill="#BFBFBF"/>
</g>
<defs>
<clipPath id="clip0_563_2209">
<rect width="24" height="24" fill="white"/>
</clipPath>
</defs>
</svg>
