<svg width="18" height="18" viewBox="0 0 18 18" fill="none" xmlns="http://www.w3.org/2000/svg">
<g clip-path="url(#clip0_611_4278)">
<path d="M14.3505 2.6193C13.6561 1.9124 12.8285 1.35011 11.9156 0.964908C11.0026 0.579706 10.0224 0.379231 9.03152 0.375066C8.04064 0.370902 7.05876 0.56313 6.1426 0.940645C5.22645 1.31816 4.39418 1.87348 3.69389 2.57451C2.9936 3.27555 2.43916 4.1084 2.06262 5.02496C1.68608 5.94152 1.49489 6.9236 1.5001 7.91448C1.50532 8.90535 1.70683 9.88537 2.093 10.7979C2.47917 11.7105 3.04235 12.5374 3.74998 13.231L9.04723 18.4128L14.3505 13.225C15.7567 11.8186 16.5468 9.91109 16.5468 7.92218C16.5468 5.93326 15.7567 4.02579 14.3505 2.6193ZM12.7972 10.9173H5.29723V7.47405C5.2981 7.18594 5.365 6.90186 5.49281 6.64365C5.62062 6.38544 5.80592 6.15996 6.03448 5.98455L7.90948 4.55205C8.23672 4.3032 8.6365 4.16847 9.0476 4.16847C9.45871 4.16847 9.85849 4.3032 10.1857 4.55205L12.0607 5.98455C12.2891 6.16012 12.4742 6.38564 12.6018 6.64383C12.7295 6.90202 12.7963 7.18602 12.7972 7.47405V10.9173ZM11.1472 7.17705C11.1938 7.21198 11.2316 7.25727 11.2576 7.30935C11.2837 7.36142 11.2972 7.41883 11.2972 7.47705V9.4173H9.79723V7.9173H8.29723V9.4173H6.79723V7.47405C6.79723 7.41583 6.81078 7.35842 6.83682 7.30634C6.86285 7.25427 6.90066 7.20898 6.94723 7.17405L8.82223 5.7423C8.88767 5.69218 8.9678 5.66503 9.05023 5.66503C9.13266 5.66503 9.21279 5.69218 9.27823 5.7423L11.1472 7.17705Z" fill="#BFBFBF"/>
</g>
<defs>
<clipPath id="clip0_611_4278">
<rect width="18" height="18" fill="white"/>
</clipPath>
</defs>
</svg>
