<svg width="22" height="22" viewBox="0 0 22 22" fill="none" xmlns="http://www.w3.org/2000/svg">
<rect width="22" height="22" fill="#04FDF9"/>
<g clip-path="url(#clip0_3014_11291)">
<path d="M17.75 2H4.25C3.65326 2 3.08097 2.23705 2.65901 2.65901C2.23705 3.08097 2 3.65326 2 4.25L2 17H7.175L10.031 19.4135C10.3017 19.6423 10.6448 19.7679 10.9992 19.7679C11.3537 19.7679 11.6968 19.6423 11.9675 19.4135L14.825 17H20V4.25C20 3.65326 19.7629 3.08097 19.341 2.65901C18.919 2.23705 18.3467 2 17.75 2ZM18.5 15.5H14.2745L11 18.2675L7.7255 15.5H3.5V4.25C3.5 4.05109 3.57902 3.86032 3.71967 3.71967C3.86032 3.57902 4.05109 3.5 4.25 3.5H17.75C17.9489 3.5 18.1397 3.57902 18.2803 3.71967C18.421 3.86032 18.5 4.05109 18.5 4.25V15.5Z" fill="black"/>
<path d="M11 5.75H6.5V7.25H11V5.75Z" fill="black"/>
<path d="M15.5 8.75H6.5V10.25H15.5V8.75Z" fill="black"/>
<path d="M15.5 11.75H6.5V13.25H15.5V11.75Z" fill="black"/>
</g>
<defs>
<clipPath id="clip0_3014_11291">
<rect width="18" height="18" fill="white" transform="translate(2 2)"/>
</clipPath>
</defs>
</svg>
