<svg width="24" height="24" viewBox="0 0 24 24" fill="none" xmlns="http://www.w3.org/2000/svg">
<g clip-path="url(#clip0_2486_15653)">
<path d="M19 8.00061V7.00061C19 5.14409 18.2625 3.36362 16.9497 2.05086C15.637 0.738108 13.8565 0.000610352 12 0.000610352C10.1435 0.000610352 8.36301 0.738108 7.05025 2.05086C5.7375 3.36362 5 5.14409 5 7.00061V8.00061H2V21.0006C2 21.7963 2.31607 22.5593 2.87868 23.1219C3.44129 23.6845 4.20435 24.0006 5 24.0006H19C19.7956 24.0006 20.5587 23.6845 21.1213 23.1219C21.6839 22.5593 22 21.7963 22 21.0006V8.00061H19ZM7 7.00061C7 5.67453 7.52678 4.40276 8.46447 3.46508C9.40215 2.52739 10.6739 2.00061 12 2.00061C13.3261 2.00061 14.5979 2.52739 15.5355 3.46508C16.4732 4.40276 17 5.67453 17 7.00061V8.00061H7V7.00061ZM20 21.0006C20 21.2658 19.8946 21.5202 19.7071 21.7077C19.5196 21.8953 19.2652 22.0006 19 22.0006H5C4.73478 22.0006 4.48043 21.8953 4.29289 21.7077C4.10536 21.5202 4 21.2658 4 21.0006V10.0006H20V21.0006Z" fill="white"/>
<path d="M13 14.0006H11V18.0006H13V14.0006Z" fill="white"/>
</g>
<defs>
<clipPath id="clip0_2486_15653">
<rect width="24" height="24" fill="white" transform="translate(0 0.000610352)"/>
</clipPath>
</defs>
</svg>
