<svg width="50" height="32" viewBox="0 0 50 32" fill="none" xmlns="http://www.w3.org/2000/svg">
<mask id="path-1-inside-1_560_10786" fill="white">
<path d="M0 0H50V32H0V0Z"/>
</mask>
<path d="M0 0H50V32H0V0Z" fill="black"/>
<path d="M4 32V0H-4V32H4Z" fill="#04FDF9" mask="url(#path-1-inside-1_560_10786)"/>
<g clip-path="url(#clip0_560_10786)">
<path d="M33.25 24.9775C31.0679 24.9775 28.9752 24.1107 27.4322 22.5677C25.8893 21.0248 25.0225 18.9321 25.0225 16.75C25.0225 14.5679 25.8893 12.4752 27.4322 10.9323C28.9752 9.38932 31.0679 8.5225 33.25 8.5225H34L34.0097 9.2725L34 16H41.4775V16.75C41.4751 18.9313 40.6075 21.0226 39.0651 22.5651C37.5226 24.1075 35.4313 24.9751 33.25 24.9775ZM32.509 10.0637C31.2497 10.2034 30.0555 10.6959 29.0637 11.4844C28.072 12.2729 27.3231 13.3255 26.9032 14.5209C26.4834 15.7163 26.4096 17.006 26.6905 18.2414C26.9713 19.4769 27.5953 20.608 28.4907 21.5044C29.386 22.4009 30.5163 23.0263 31.7515 23.3086C32.9866 23.5909 34.2764 23.5187 35.4723 23.1003C36.6682 22.6819 37.7217 21.9343 38.5114 20.9435C39.3011 19.9527 39.795 18.7591 39.9362 17.5H32.5L32.509 10.0637Z" fill="#999999"/>
<path d="M37.0142 8.716C38.0444 8.98553 38.9843 9.52439 39.7375 10.2773C40.4906 11.0301 41.0298 11.9699 41.2997 13H37.0142V8.716ZM35.5142 7.0255V14.5H42.9902C42.9805 12.5204 42.1897 10.6246 40.7897 9.22488C39.3897 7.82519 37.4938 7.03477 35.5142 7.0255Z" fill="#999999"/>
</g>
<defs>
<clipPath id="clip0_560_10786">
<rect width="18" height="18" fill="white" transform="translate(25 7)"/>
</clipPath>
</defs>
</svg>
