<svg width="50" height="32" viewBox="0 0 50 32" fill="none" xmlns="http://www.w3.org/2000/svg">
<mask id="path-1-inside-1_557_10638" fill="white">
<path d="M0 0H50V32H0V0Z"/>
</mask>
<path d="M0 0H50V32H0V0Z" fill="black"/>
<path d="M4 32V0H-4V32H4Z" fill="#04FDF9" mask="url(#path-1-inside-1_557_10638)"/>
<g clip-path="url(#clip0_557_10638)">
<path d="M34.0916 7L26.2166 11.5V20.5L34.0916 25L41.9666 20.5V11.5L34.0916 7ZM39.7263 11.95L34.0091 15.139L28.5048 11.92L34.0916 8.725L39.7263 11.95ZM27.7166 13.1965L33.2501 16.4305V22.792L27.7166 19.6293V13.1965ZM34.7501 22.8955V16.4403L40.4666 13.252V19.627L34.7501 22.8955Z" fill="#999999"/>
</g>
<defs>
<clipPath id="clip0_557_10638">
<rect width="18" height="18" fill="white" transform="translate(25 7)"/>
</clipPath>
</defs>
</svg>
