<svg width="50" height="32" viewBox="0 0 50 32" fill="none" xmlns="http://www.w3.org/2000/svg">
<mask id="path-1-inside-1_565_2265" fill="white">
<path d="M0 0H50V32H0V0Z"/>
</mask>
<path d="M0 0H50V32H0V0Z" fill="black"/>
<path d="M4 32V0H-4V32H4Z" fill="#04FDF9" mask="url(#path-1-inside-1_565_2265)"/>
<g clip-path="url(#clip0_565_2265)">
<path d="M34 7C32.22 7 30.4799 7.52784 28.9999 8.51677C27.5198 9.50571 26.3663 10.9113 25.6851 12.5558C25.0039 14.2004 24.8257 16.01 25.1729 17.7558C25.5202 19.5016 26.3774 21.1053 27.636 22.364C28.8947 23.6226 30.4984 24.4798 32.2442 24.8271C33.99 25.1743 35.7996 24.9961 37.4442 24.3149C39.0887 23.6337 40.4943 22.4802 41.4832 21.0001C42.4722 19.5201 43 17.78 43 16C42.9974 13.6138 42.0484 11.3262 40.3611 9.63889C38.6738 7.95162 36.3862 7.00258 34 7ZM40.4853 12.25H38.0695C37.5287 10.9967 36.8167 9.82456 35.9538 8.767C37.8636 9.2867 39.4917 10.5381 40.4853 12.25ZM37.375 16C37.3688 16.7636 37.2485 17.522 37.018 18.25H30.982C30.7515 17.522 30.6312 16.7636 30.625 16C30.6312 15.2364 30.7515 14.478 30.982 13.75H37.018C37.2485 14.478 37.3688 15.2364 37.375 16ZM31.5835 19.75H36.4165C35.7799 21.0068 34.9661 22.1656 34 23.191C33.0335 22.1659 32.2197 21.007 31.5835 19.75ZM31.5835 12.25C32.2201 10.9932 33.0339 9.83437 34 8.809C34.9665 9.83408 35.7803 10.993 36.4165 12.25H31.5835ZM32.05 8.767C31.1857 9.82434 30.4724 10.9965 29.9305 12.25H27.5148C28.5091 10.5373 30.1387 9.28582 32.05 8.767ZM26.8458 13.75H29.425C29.2306 14.4844 29.1298 15.2404 29.125 16C29.1298 16.7596 29.2306 17.5156 29.425 18.25H26.8458C26.3848 16.7854 26.3848 15.2146 26.8458 13.75ZM27.5148 19.75H29.9305C30.4724 21.0035 31.1857 22.1757 32.05 23.233C30.1387 22.7142 28.5091 21.4627 27.5148 19.75ZM35.9538 23.233C36.8167 22.1754 37.5287 21.0033 38.0695 19.75H40.4853C39.4917 21.4619 37.8636 22.7133 35.9538 23.233ZM41.1543 18.25H38.575C38.7694 17.5156 38.8702 16.7596 38.875 16C38.8702 15.2404 38.7694 14.4844 38.575 13.75H41.1528C41.6137 15.2146 41.6137 16.7854 41.1528 18.25H41.1543Z" fill="#999999"/>
</g>
<defs>
<clipPath id="clip0_565_2265">
<rect width="18" height="18" fill="white" transform="translate(25 7)"/>
</clipPath>
</defs>
</svg>
