<svg width="18" height="18" viewBox="0 0 18 18" fill="none" xmlns="http://www.w3.org/2000/svg">
<g clip-path="url(#clip0_1750_9006)">
<path d="M6.75 16.5C6.75 17.325 6.075 18 5.25 18C4.425 18 3.75 17.325 3.75 16.5C3.75 15.675 4.425 15 5.25 15C6.075 15 6.75 15.675 6.75 16.5ZM12.75 15C11.925 15 11.25 15.675 11.25 16.5C11.25 17.325 11.925 18 12.75 18C13.575 18 14.25 17.325 14.25 16.5C14.25 15.675 13.575 15 12.75 15ZM17.9925 2.25H11.25V6.75L12.51 5.49L13.5675 6.5475L11.5575 8.5575C11.265 8.85 10.8825 8.9925 10.5 8.9925C10.1175 8.9925 9.735 8.85 9.4425 8.5575L7.425 6.54L8.4825 5.4825L9.75 6.75V2.25H3.93L3.9 1.9875C3.765 0.855 2.805 0 1.665 0H0V1.5H1.665C2.0475 1.5 2.3625 1.785 2.4075 2.16L3.5925 12.2625C3.7275 13.395 4.6875 14.25 5.8275 14.25H14.9925V12.75H5.835C5.4525 12.75 5.1375 12.465 5.0925 12.09L4.995 11.25H16.2L18 2.25H17.9925Z" fill="#BFBFBF"/>
</g>
<defs>
<clipPath id="clip0_1750_9006">
<rect width="18" height="18" fill="white"/>
</clipPath>
</defs>
</svg>
