<svg width="50" height="32" viewBox="0 0 50 32" fill="none" xmlns="http://www.w3.org/2000/svg">
<mask id="path-1-inside-1_596_3898" fill="white">
<path d="M0 0H50V32H0V0Z"/>
</mask>
<path d="M0 0H50V32H0V0Z" fill="black"/>
<path d="M4 32V0H-4V32H4Z" fill="#04FDF9" mask="url(#path-1-inside-1_596_3898)"/>
<g clip-path="url(#clip0_596_3898)">
<path d="M33.25 11.5V16.3938L37.045 18.6895L37.8212 17.4063L34.75 15.5478V11.5H33.25Z" fill="#999999"/>
<path d="M41.5 8.5V11.0215C39.8582 8.533 37.0825 7 34 7C29.0373 7 25 11.0373 25 16H26.5C26.5 11.8645 29.8645 8.5 34 8.5C36.73 8.5 39.175 9.94075 40.4988 12.25H37.75V13.75H41.5C42.3272 13.75 43 13.0773 43 12.25V8.5H41.5Z" fill="#999999"/>
<path d="M34 23.5C31.27 23.5 28.825 22.0592 27.5013 19.75H30.25V18.25H26.5C25.6727 18.25 25 18.9227 25 19.75V23.5H26.5V20.9785C28.1417 23.4678 30.9183 25 34 25C38.9628 25 43 20.9627 43 16H41.5C41.5 20.1355 38.1355 23.5 34 23.5Z" fill="#999999"/>
</g>
<defs>
<clipPath id="clip0_596_3898">
<rect width="18" height="18" fill="white" transform="translate(25 7)"/>
</clipPath>
</defs>
</svg>
