<svg width="18" height="18" viewBox="0 0 18 18" fill="none" xmlns="http://www.w3.org/2000/svg">
<path d="M8.99989 0.00537109C7.51597 0.00553859 6.06546 0.445898 4.8319 1.27072C3.59834 2.09555 2.63719 3.26777 2.07007 4.63903C1.50295 6.0103 1.35536 7.51899 1.64597 8.97417C1.93657 10.4293 2.65232 11.7656 3.70264 12.8139L8.99989 17.9949L14.3031 12.8079C15.3518 11.7589 16.0658 10.4226 16.3551 8.96792C16.6443 7.51321 16.4957 6.00539 15.9281 4.63512C15.3605 3.26484 14.3993 2.09362 13.1661 1.26955C11.9329 0.445471 10.4831 0.00553949 8.99989 0.00537109ZM13.2486 11.7414L8.99989 15.9001L4.75714 11.7474C3.91831 10.9085 3.34699 9.83979 3.11537 8.67631C2.88374 7.51283 3.00223 6.30679 3.45584 5.21063C3.90945 4.11446 4.67782 3.17737 5.66386 2.51777C6.6499 1.85818 7.80934 1.50568 8.99565 1.50485C10.182 1.50401 11.3419 1.85486 12.3289 2.51306C13.3158 3.17126 14.0855 4.10727 14.5407 5.2028C14.9959 6.29832 15.116 7.50418 14.8861 8.66799C14.6561 9.8318 14.0863 10.9013 13.2486 11.7414ZM12.0134 5.56737L10.1384 4.13487C9.81115 3.88603 9.41137 3.75129 9.00026 3.75129C8.58916 3.75129 8.18938 3.88603 7.86214 4.13487L5.98714 5.56737C5.75858 5.74278 5.57328 5.96826 5.44547 6.22647C5.31766 6.48468 5.25076 6.76876 5.24989 7.05687V10.5001H12.7499V7.05687C12.749 6.76884 12.6822 6.48484 12.5545 6.22665C12.4268 5.96846 12.2417 5.74294 12.0134 5.56737ZM11.2499 9.00012H9.74989V7.50012H8.24989V9.00012H6.74989V7.05687C6.74989 6.99865 6.76344 6.94124 6.78948 6.88917C6.81551 6.8371 6.85331 6.7918 6.89989 6.75687L8.77489 5.32512C8.84033 5.27501 8.92046 5.24785 9.00289 5.24785C9.08532 5.24785 9.16545 5.27501 9.23089 5.32512L11.1059 6.75762C11.1525 6.79255 11.1903 6.83784 11.2163 6.88992C11.2423 6.94199 11.2559 6.9994 11.2559 7.05762L11.2499 9.00012Z" fill="currentColor"/>
</svg>
