<svg width="18" height="18" viewBox="0 0 18 18" fill="none" xmlns="http://www.w3.org/2000/svg">
<g clip-path="url(#clip0_1494_4652)">
<path d="M3 0V15.75C3 16.3467 3.23705 16.919 3.65901 17.341C4.08097 17.7629 4.65326 18 5.25 18H12.75C13.3467 18 13.919 17.7629 14.341 17.341C14.7629 16.919 15 16.3467 15 15.75V0H3ZM13.5 1.5V12H4.5V1.5H13.5ZM12.75 16.5H5.25C5.05109 16.5 4.86032 16.421 4.71967 16.2803C4.57902 16.1397 4.5 15.9489 4.5 15.75V13.5H13.5V15.75C13.5 15.9489 13.421 16.1397 13.2803 16.2803C13.1397 16.421 12.9489 16.5 12.75 16.5Z" fill="currentColor"/>
<path d="M9.75 14.25H8.25V15.75H9.75V14.25Z" fill="white"/>
</g>
<defs>
<clipPath id="clip0_1494_4652">
<rect width="18" height="18" fill="white"/>
</clipPath>
</defs>
</svg>
