<svg width="24" height="24" viewBox="0 0 24 24" fill="none" xmlns="http://www.w3.org/2000/svg">
<g clip-path="url(#clip0_1494_7169)">
<path d="M1 5.99988V0.999878H3V4.10388C5.256 1.54188 8.524 -0.00012207 12 -0.00012207C18.617 -0.00012207 24 5.38288 24 11.9999H22C22 6.48588 17.514 1.99988 12 1.99988C8.846 1.99988 5.885 3.50988 4.009 5.99988H8V7.99988H3C1.897 7.99988 1 7.10288 1 5.99988ZM21 15.9999H16V17.9999H19.991C18.114 20.4899 15.154 21.9999 12 21.9999C6.486 21.9999 2 17.5139 2 11.9999H0C0 18.6169 5.383 23.9999 12 23.9999C15.476 23.9999 18.744 22.4579 21 19.8959V22.9999H23V17.9999C23 16.8969 22.103 15.9999 21 15.9999Z" fill="white"/>
</g>
<defs>
<clipPath id="clip0_1494_7169">
<rect width="24" height="24" fill="white"/>
</clipPath>
</defs>
</svg>
