<svg width="18" height="18" viewBox="0 0 18 18" fill="none" xmlns="http://www.w3.org/2000/svg">
<g clip-path="url(#clip0_1494_1315)">
<path d="M11.2498 18H6.74983V15.3652C5.96777 15.0885 5.24342 14.6701 4.61308 14.1307L2.33008 15.45L0.0800781 11.55L2.36233 10.2338C2.21241 9.41808 2.21241 8.58192 2.36233 7.76625L0.0800781 6.45L2.33008 2.55L4.61308 3.86925C5.24342 3.32994 5.96777 2.91145 6.74983 2.63475V0H11.2498V2.63475C12.0319 2.91145 12.7562 3.32994 13.3866 3.86925L15.6696 2.55L17.9196 6.45L15.6373 7.76625C15.7872 8.58192 15.7872 9.41808 15.6373 10.2338L17.9196 11.55L15.6696 15.45L13.3866 14.1315C12.7562 14.6705 12.0318 15.0888 11.2498 15.3652V18ZM8.24983 16.5H9.74983V14.2297L10.3131 14.0842C11.2371 13.8449 12.0781 13.3576 12.7453 12.675L13.1526 12.2603L15.1198 13.3965L15.8698 12.0975L13.9048 10.9627L14.0593 10.4032C14.3133 9.48295 14.3133 8.51105 14.0593 7.59075L13.9048 7.03125L15.8698 5.8965L15.1198 4.5975L13.1526 5.73675L12.7453 5.325C12.0778 4.64351 11.2368 4.15727 10.3131 3.91875L9.74983 3.77025V1.5H8.24983V3.77025L7.68658 3.91575C6.76257 4.15511 5.92153 4.64241 5.25433 5.325L4.84708 5.73975L2.87983 4.6005L2.12983 5.8995L4.09483 7.03425L3.94033 7.59375C3.68635 8.51405 3.68635 9.48595 3.94033 10.4062L4.09483 10.9657L2.12983 12.1005L2.87983 13.3995L4.84708 12.2633L5.25433 12.678C5.92189 13.3595 6.7629 13.8457 7.68658 14.0842L8.24983 14.2297V16.5ZM8.99983 12C8.40648 12 7.82646 11.8241 7.33312 11.4944C6.83977 11.1648 6.45525 10.6962 6.22819 10.1481C6.00113 9.59987 5.94172 8.99667 6.05747 8.41473C6.17323 7.83279 6.45895 7.29824 6.87851 6.87868C7.29806 6.45912 7.83261 6.1734 8.41456 6.05764C8.9965 5.94189 9.5997 6.0013 10.1479 6.22836C10.6961 6.45542 11.1646 6.83994 11.4942 7.33329C11.8239 7.82664 11.9998 8.40666 11.9998 9C11.9998 9.79565 11.6838 10.5587 11.1211 11.1213C10.5585 11.6839 9.79548 12 8.99983 12ZM8.99983 7.5C8.70316 7.5 8.41315 7.58797 8.16647 7.7528C7.9198 7.91762 7.72754 8.15189 7.61401 8.42597C7.50048 8.70006 7.47077 9.00166 7.52865 9.29263C7.58653 9.58361 7.72939 9.85088 7.93917 10.0607C8.14895 10.2704 8.41622 10.4133 8.70719 10.4712C8.99816 10.5291 9.29976 10.4994 9.57385 10.3858C9.84794 10.2723 10.0822 10.08 10.247 9.83335C10.4119 9.58668 10.4998 9.29667 10.4998 9C10.4998 8.60218 10.3418 8.22064 10.0605 7.93934C9.77918 7.65804 9.39765 7.5 8.99983 7.5Z" fill="currentColor"/>
</g>
<defs>
<clipPath id="clip0_1494_1315">
<rect width="18" height="18" fill="white"/>
</clipPath>
</defs>
</svg>
