<svg width="18" height="18" viewBox="0 0 18 18" fill="none" xmlns="http://www.w3.org/2000/svg">
<g clip-path="url(#clip0_1258_13697)">
<path d="M2.25 3H18V1.5H2.25C1.0095 1.5 0 2.5095 0 3.75V14.25C0 15.4905 1.0095 16.5 2.25 16.5H18V4.5H2.25C1.836 4.5 1.5 4.16325 1.5 3.75C1.5 3.33675 1.836 3 2.25 3ZM15 9.75C15.414 9.75 15.75 10.086 15.75 10.5C15.75 10.914 15.414 11.25 15 11.25C14.586 11.25 14.25 10.914 14.25 10.5C14.25 10.086 14.586 9.75 15 9.75Z" fill="#FAFAFA"/>
</g>
<defs>
<clipPath id="clip0_1258_13697">
<rect width="18" height="18" fill="white"/>
</clipPath>
</defs>
</svg>
