<svg width="20" height="16" viewBox="0 0 20 16" fill="none" xmlns="http://www.w3.org/2000/svg">
<g clip-path="url(#clip0_1431_24459)">
<rect width="20" height="15" transform="translate(0 0.5)" fill="white"/>
<path fill-rule="evenodd" clip-rule="evenodd" d="M0 0.5V15.5H20V0.5H0Z" fill="#F7FCFF"/>
<mask id="mask0_1431_24459" style="mask-type:luminance" maskUnits="userSpaceOnUse" x="0" y="0" width="20" height="16">
<path fill-rule="evenodd" clip-rule="evenodd" d="M0 0.5V15.5H20V0.5H0Z" fill="white"/>
</mask>
<g mask="url(#mask0_1431_24459)">
<path fill-rule="evenodd" clip-rule="evenodd" d="M-0.940918 2.15719L-0.0114525 3.04283C0.756064 2.3173 1.48026 1.97501 2.16849 1.97501C2.50101 1.97501 2.64261 2.05532 3.0261 2.41783C3.63437 2.99282 4.04374 3.22501 4.81317 3.22501C5.5826 3.22501 5.99197 2.99282 6.60024 2.41783C6.98372 2.05532 7.12533 1.97501 7.45784 1.97501C7.79036 1.97501 7.93197 2.05532 8.31545 2.41783C8.92372 2.99282 9.33309 3.22501 10.1025 3.22501C10.872 3.22501 11.2813 2.99282 11.8896 2.41783C12.2731 2.05532 12.4147 1.97501 12.7472 1.97501C13.0797 1.97501 13.2213 2.05532 13.6048 2.41783C14.2131 2.99282 14.6224 3.22501 15.3919 3.22501C16.1613 3.22501 16.5707 2.99282 17.1789 2.41783C17.5624 2.05532 17.704 1.97501 18.0365 1.97501C18.7248 1.97501 19.449 2.3173 20.2165 3.04283L21.146 2.15719C20.1504 1.21605 19.1114 0.725006 18.0365 0.725006C17.2671 0.725006 16.8577 0.957191 16.2495 1.53219C15.866 1.89469 15.7244 1.97501 15.3919 1.97501C15.0594 1.97501 14.9177 1.89469 14.5343 1.53219C13.926 0.957191 13.5166 0.725006 12.7472 0.725006C11.9778 0.725006 11.5684 0.957191 10.9601 1.53219C10.5766 1.89469 10.435 1.97501 10.1025 1.97501C9.77 1.97501 9.6284 1.89469 9.24491 1.53219C8.63664 0.957191 8.22728 0.725006 7.45784 0.725006C6.68841 0.725006 6.27904 0.957191 5.67077 1.53219C5.28729 1.89469 5.14568 1.97501 4.81317 1.97501C4.48065 1.97501 4.33905 1.89469 3.95556 1.53219C3.34729 0.957191 2.93792 0.725006 2.16849 0.725006C1.0936 0.725006 0.054683 1.21605 -0.940918 2.15719ZM-0.0114525 5.54283L-0.940918 4.65719C0.054683 3.71605 1.0936 3.22501 2.16849 3.22501C2.93792 3.22501 3.34729 3.45719 3.95556 4.03219C4.33905 4.39469 4.48065 4.47501 4.81317 4.47501C5.14568 4.47501 5.28729 4.39469 5.67077 4.03219C6.27904 3.45719 6.68841 3.22501 7.45784 3.22501C8.22728 3.22501 8.63664 3.45719 9.24491 4.03219C9.6284 4.39469 9.77 4.47501 10.1025 4.47501C10.435 4.47501 10.5766 4.39469 10.9601 4.03219C11.5684 3.45719 11.9778 3.22501 12.7472 3.22501C13.5166 3.22501 13.926 3.45719 14.5343 4.03219C14.9177 4.39469 15.0594 4.47501 15.3919 4.47501C15.7244 4.47501 15.866 4.39469 16.2495 4.03219C16.8577 3.45719 17.2671 3.22501 18.0365 3.22501C19.1114 3.22501 20.1504 3.71605 21.146 4.65719L20.2165 5.54283C19.449 4.8173 18.7248 4.47501 18.0365 4.47501C17.704 4.47501 17.5624 4.55532 17.1789 4.91783C16.5707 5.49282 16.1613 5.72501 15.3919 5.72501C14.6224 5.72501 14.2131 5.49282 13.6048 4.91783C13.2213 4.55532 13.0797 4.47501 12.7472 4.47501C12.4147 4.47501 12.2731 4.55532 11.8896 4.91783C11.2813 5.49282 10.872 5.72501 10.1025 5.72501C9.33309 5.72501 8.92372 5.49282 8.31545 4.91783C7.93197 4.55532 7.79036 4.47501 7.45784 4.47501C7.12533 4.47501 6.98372 4.55532 6.60024 4.91783C5.99197 5.49282 5.5826 5.72501 4.81317 5.72501C4.04374 5.72501 3.63437 5.49282 3.0261 4.91783C2.64261 4.55532 2.50101 4.47501 2.16849 4.47501C1.48026 4.47501 0.756064 4.8173 -0.0114525 5.54283ZM-0.0114525 8.04283L-0.940918 7.15719C0.054683 6.21605 1.0936 5.72501 2.16849 5.72501C2.93792 5.72501 3.34729 5.95719 3.95556 6.53219C4.33905 6.89469 4.48065 6.97501 4.81317 6.97501C5.14568 6.97501 5.28729 6.89469 5.67077 6.53219C6.27904 5.95719 6.68841 5.72501 7.45784 5.72501C8.22728 5.72501 8.63664 5.95719 9.24491 6.53219C9.6284 6.89469 9.77 6.97501 10.1025 6.97501C10.435 6.97501 10.5766 6.89469 10.9601 6.53219C11.5684 5.95719 11.9778 5.72501 12.7472 5.72501C13.5166 5.72501 13.926 5.95719 14.5343 6.53219C14.9177 6.89469 15.0594 6.97501 15.3919 6.97501C15.7244 6.97501 15.866 6.89469 16.2495 6.53219C16.8577 5.95719 17.2671 5.72501 18.0365 5.72501C19.1114 5.72501 20.1504 6.21605 21.146 7.15719L20.2165 8.04283C19.449 7.3173 18.7248 6.97501 18.0365 6.97501C17.704 6.97501 17.5624 7.05532 17.1789 7.41783C16.5707 7.99282 16.1613 8.22501 15.3919 8.22501C14.6224 8.22501 14.2131 7.99282 13.6048 7.41783C13.2213 7.05532 13.0797 6.97501 12.7472 6.97501C12.4147 6.97501 12.2731 7.05532 11.8896 7.41783C11.2813 7.99282 10.872 8.22501 10.1025 8.22501C9.33309 8.22501 8.92372 7.99282 8.31545 7.41783C7.93197 7.05532 7.79036 6.97501 7.45784 6.97501C7.12533 6.97501 6.98372 7.05532 6.60024 7.41783C5.99197 7.99282 5.5826 8.22501 4.81317 8.22501C4.04374 8.22501 3.63437 7.99282 3.0261 7.41783C2.64261 7.05532 2.50101 6.97501 2.16849 6.97501C1.48026 6.97501 0.756064 7.3173 -0.0114525 8.04283ZM-0.0114525 10.5428L-0.940918 9.65719C0.054683 8.71605 1.0936 8.22501 2.16849 8.22501C2.93792 8.22501 3.34729 8.45719 3.95556 9.03219C4.33905 9.39469 4.48065 9.47501 4.81317 9.47501C5.14568 9.47501 5.28729 9.39469 5.67077 9.03219C6.27904 8.45719 6.68841 8.22501 7.45784 8.22501C8.22728 8.22501 8.63664 8.45719 9.24491 9.03219C9.6284 9.39469 9.77 9.47501 10.1025 9.47501C10.435 9.47501 10.5766 9.39469 10.9601 9.03219C11.5684 8.45719 11.9778 8.22501 12.7472 8.22501C13.5166 8.22501 13.926 8.45719 14.5343 9.03219C14.9177 9.39469 15.0594 9.47501 15.3919 9.47501C15.7244 9.47501 15.866 9.39469 16.2495 9.03219C16.8577 8.45719 17.2671 8.22501 18.0365 8.22501C19.1114 8.22501 20.1504 8.71605 21.146 9.65719L20.2165 10.5428C19.449 9.8173 18.7248 9.47501 18.0365 9.47501C17.704 9.47501 17.5624 9.55532 17.1789 9.91783C16.5707 10.4928 16.1613 10.725 15.3919 10.725C14.6224 10.725 14.2131 10.4928 13.6048 9.91783C13.2213 9.55532 13.0797 9.47501 12.7472 9.47501C12.4147 9.47501 12.2731 9.55532 11.8896 9.91783C11.2813 10.4928 10.872 10.725 10.1025 10.725C9.33309 10.725 8.92372 10.4928 8.31545 9.91783C7.93197 9.55532 7.79036 9.47501 7.45784 9.47501C7.12533 9.47501 6.98372 9.55532 6.60024 9.91783C5.99197 10.4928 5.5826 10.725 4.81317 10.725C4.04374 10.725 3.63437 10.4928 3.0261 9.91783C2.64261 9.55532 2.50101 9.47501 2.16849 9.47501C1.48026 9.47501 0.756064 9.8173 -0.0114525 10.5428ZM-0.0114525 13.0428L-0.940918 12.1572C0.054683 11.216 1.0936 10.725 2.16849 10.725C2.93792 10.725 3.34729 10.9572 3.95556 11.5322C4.33905 11.8947 4.48065 11.975 4.81317 11.975C5.14568 11.975 5.28729 11.8947 5.67077 11.5322C6.27904 10.9572 6.68841 10.725 7.45784 10.725C8.22728 10.725 8.63664 10.9572 9.24491 11.5322C9.6284 11.8947 9.77 11.975 10.1025 11.975C10.435 11.975 10.5766 11.8947 10.9601 11.5322C11.5684 10.9572 11.9778 10.725 12.7472 10.725C13.5166 10.725 13.926 10.9572 14.5343 11.5322C14.9177 11.8947 15.0594 11.975 15.3919 11.975C15.7244 11.975 15.866 11.8947 16.2495 11.5322C16.8577 10.9572 17.2671 10.725 18.0365 10.725C19.1114 10.725 20.1504 11.216 21.146 12.1572L20.2165 13.0428C19.449 12.3173 18.7248 11.975 18.0365 11.975C17.704 11.975 17.5624 12.0553 17.1789 12.4178C16.5707 12.9928 16.1613 13.225 15.3919 13.225C14.6224 13.225 14.2131 12.9928 13.6048 12.4178C13.2213 12.0553 13.0797 11.975 12.7472 11.975C12.4147 11.975 12.2731 12.0553 11.8896 12.4178C11.2813 12.9928 10.872 13.225 10.1025 13.225C9.33309 13.225 8.92372 12.9928 8.31545 12.4178C7.93197 12.0553 7.79036 11.975 7.45784 11.975C7.12533 11.975 6.98372 12.0553 6.60024 12.4178C5.99197 12.9928 5.5826 13.225 4.81317 13.225C4.04374 13.225 3.63437 12.9928 3.0261 12.4178C2.64261 12.0553 2.50101 11.975 2.16849 11.975C1.48026 11.975 0.756064 12.3173 -0.0114525 13.0428ZM-0.0114525 15.5428L-0.940918 14.6572C0.054683 13.716 1.0936 13.225 2.16849 13.225C2.93792 13.225 3.34729 13.4572 3.95556 14.0322C4.33905 14.3947 4.48065 14.475 4.81317 14.475C5.14568 14.475 5.28729 14.3947 5.67077 14.0322C6.27904 13.4572 6.68841 13.225 7.45784 13.225C8.22728 13.225 8.63664 13.4572 9.24491 14.0322C9.6284 14.3947 9.77 14.475 10.1025 14.475C10.435 14.475 10.5766 14.3947 10.9601 14.0322C11.5684 13.4572 11.9778 13.225 12.7472 13.225C13.5166 13.225 13.926 13.4572 14.5343 14.0322C14.9177 14.3947 15.0594 14.475 15.3919 14.475C15.7244 14.475 15.866 14.3947 16.2495 14.0322C16.8577 13.4572 17.2671 13.225 18.0365 13.225C19.1114 13.225 20.1504 13.716 21.146 14.6572L20.2165 15.5428C19.449 14.8173 18.7248 14.475 18.0365 14.475C17.704 14.475 17.5624 14.5553 17.1789 14.9178C16.5707 15.4928 16.1613 15.725 15.3919 15.725C14.6224 15.725 14.2131 15.4928 13.6048 14.9178C13.2213 14.5553 13.0797 14.475 12.7472 14.475C12.4147 14.475 12.2731 14.5553 11.8896 14.9178C11.2813 15.4928 10.872 15.725 10.1025 15.725C9.33309 15.725 8.92372 15.4928 8.31545 14.9178C7.93197 14.5553 7.79036 14.475 7.45784 14.475C7.12533 14.475 6.98372 14.5553 6.60024 14.9178C5.99197 15.4928 5.5826 15.725 4.81317 15.725C4.04374 15.725 3.63437 15.4928 3.0261 14.9178C2.64261 14.5553 2.50101 14.475 2.16849 14.475C1.48026 14.475 0.756064 14.8173 -0.0114525 15.5428Z" fill="#2E42A5"/>
</g>
<g clip-path="url(#clip1_1431_24459)">
<rect width="11" height="9" transform="translate(0 0.5)" fill="#2E42A5"/>
<path d="M-1.25244 8.62488L1.22315 9.71063L11.3064 1.68046L12.6122 0.0670013L9.96493 -0.295888L5.85221 3.16454L2.5419 5.49607L-1.25244 8.62488Z" fill="#F7FCFF"/>
<path d="M-0.913574 9.38561L0.347627 10.0157L12.1433 -0.0828857H10.3724L-0.913574 9.38561Z" fill="#F50100"/>
<path d="M12.5024 8.6249L10.3054 10.0206L-0.0564003 1.68047L-1.36222 0.0670156L1.28507 -0.295875L5.39779 3.16456L8.7081 5.49608L12.5024 8.6249Z" fill="#F7FCFF"/>
<path d="M12.418 9.17082L11.1568 9.8009L6.13406 5.47718L4.64494 4.9941L-1.48787 0.0725183H0.283002L6.41237 4.87728L8.04046 5.45655L12.418 9.17082Z" fill="#F50100"/>
<path fill-rule="evenodd" clip-rule="evenodd" d="M6 0.5H5V4.5H0V5.5H5V9.5H6V5.5H11V4.5H6V0.5Z" fill="#F50100"/>
<path fill-rule="evenodd" clip-rule="evenodd" d="M4.0625 0.5H6.9375V3.5625L11 3.5V6.375L6.9375 6.4375V9.5H4.0625V6.4375L0 6.375V3.5L4.0625 3.5625V0.5ZM5 4.5H0V5.5H5V9.5H6V5.5H11V4.5H6V0.5H5V4.5Z" fill="#F7FCFF"/>
</g>
<rect x="12.75" y="6.36166" width="0.625" height="7.88835" rx="0.3125" fill="#D86D00"/>
<path d="M12.7529 1.78595C13.3915 2.66171 13.4724 3.83771 13.3915 4.8913L12.8929 4.8552C12.9701 3.85014 12.7529 1.78595 12.7529 1.78595Z" fill="#449A01" stroke="white" stroke-width="0.15"/>
<path d="M13.5668 5.11507L13.1069 4.9246C13.5503 3.52179 15.7621 2.32733 15.7621 2.32733C14.7714 2.80071 14.4345 4.08422 13.5668 5.11507Z" fill="#449A01" stroke="white" stroke-width="0.15"/>
<path d="M13.3602 5.40651L13.1187 4.98148C14.301 4.15942 16.2111 3.98206 16.2111 3.98206C15.2257 4.26168 14.2305 4.94031 13.3602 5.40651Z" fill="#449A01" stroke="white" stroke-width="0.15"/>
<path d="M13.0527 5.61327L13.261 5.17197C15.5738 5.88987 15.9128 7.09028 15.9128 7.09028C15.6094 6.82241 14.6448 6.32165 13.0527 5.61327Z" fill="#449A01" stroke="white" stroke-width="0.15"/>
<path d="M12.8096 5.58108L13.3006 5.48978C13.4706 6.35158 13.9089 6.87378 14.1407 7.42697C14.1407 7.42697 12.8428 6.84726 12.8096 5.58108Z" fill="#449A01" stroke="white" stroke-width="0.15"/>
<path d="M12.772 5.17694L13.3015 5.3101C12.4327 6.37218 11.1418 6.9301 10.6313 7.11248C10.6313 7.11248 11.753 6.10083 12.772 5.17694Z" fill="#449A01" stroke="white" stroke-width="0.15"/>
<path d="M13.0073 4.94704L12.9269 5.44054C11.8924 5.12502 10.0303 5.25721 10.0303 5.25721C10.8119 5.07209 11.8924 4.7654 13.0073 4.94704Z" fill="#449A01" stroke="white" stroke-width="0.15"/>
<path d="M13.0965 4.69454L12.8931 5.13799C11.3657 4.47758 10.5493 3.24316 10.5493 3.24316C10.6011 3.47023 11.7478 4.11138 13.0965 4.69454Z" fill="#449A01" stroke="white" stroke-width="0.15"/>
<path fill-rule="evenodd" clip-rule="evenodd" d="M14.9447 10.0672V9.97699C14.6567 9.74953 14.355 9.6358 14.0398 9.6358C13.7376 9.48865 13.4317 9.43152 13.1221 9.46444C13.1222 9.46339 13.1222 9.46285 13.1222 9.46285C12.6567 9.41273 12.1876 9.6358 12.1876 9.6358C11.7148 9.6358 11.2827 9.97699 11.2827 9.97699V10.0672L11.8475 10.6914C11.8475 10.6914 12.0065 11.2922 13.1199 11.151V11.1525C13.1199 11.1525 13.8571 11.1303 13.9089 11.1114C13.9295 11.1039 13.9508 11.097 13.9726 11.09C14.1169 11.0436 14.2818 10.9907 14.3799 10.6914L14.9447 10.0672ZM13.1199 9.49204C13.1039 9.69984 13.0121 10.9525 13.1199 11.1467V9.49204Z" fill="#F50100"/>
<path fill-rule="evenodd" clip-rule="evenodd" d="M12.2003 9.36616C12.2604 9.16354 12.3655 9.09492 12.6216 9.09492C12.7806 9.09492 12.9007 9.13567 12.9843 9.21554V9.75703H13.029V9.81232C12.9986 9.83868 12.9841 9.89347 12.9955 9.95213C12.9993 9.97168 13.0056 9.98975 13.0138 10.0056C12.9934 9.99806 12.97 9.99373 12.945 9.99373C12.8676 9.99373 12.805 10.0351 12.805 10.0862C12.805 10.1372 12.8676 10.1786 12.945 10.1786C13.0223 10.1786 13.085 10.1372 13.085 10.0862C13.085 10.1119 13.1009 10.1351 13.1265 10.1519H13.0578H13.056C13.056 10.2911 12.9914 10.3798 12.8946 10.3798C12.827 10.3798 12.7795 10.3458 12.745 10.2709L12.6492 10.0628L12.6391 10.2958C12.6355 10.3779 12.603 10.4105 12.5222 10.4105C12.4438 10.4105 12.3875 10.3572 12.3494 10.2372C12.3608 10.2392 12.3727 10.2402 12.385 10.2402C12.4623 10.2402 12.525 10.1988 12.525 10.1478C12.525 10.0967 12.4623 10.0554 12.385 10.0554C12.3676 10.0554 12.351 10.0574 12.3357 10.0612C12.3419 10.0367 12.3427 10.0081 12.337 9.97847C12.3222 9.90257 12.2696 9.84894 12.2195 9.85868C12.1694 9.86842 12.1408 9.93785 12.1555 10.0137C12.1593 10.0333 12.1656 10.0514 12.1738 10.0673C12.1534 10.0597 12.13 10.0554 12.105 10.0554C12.0276 10.0554 11.965 10.0967 11.965 10.1478C11.965 10.1988 12.0276 10.2402 12.105 10.2402C12.1676 10.2402 12.2207 10.213 12.2385 10.1755L12.2341 10.2299C12.2217 10.3833 12.1837 10.4552 12.1274 10.4653C12.0507 10.479 11.9925 10.4725 11.9518 10.4483L11.8692 10.3991V10.4828C11.8432 10.4859 11.7986 10.4805 11.7376 10.4659L11.7281 10.5142L11.6297 10.4124C11.6585 10.4137 11.6916 10.4062 11.7233 10.3894C11.7916 10.3531 11.8275 10.2871 11.8035 10.242C11.7796 10.197 11.7048 10.1899 11.6365 10.2262C11.6173 10.2364 11.6007 10.2489 11.5872 10.2627C11.586 10.2487 11.5833 10.2343 11.5789 10.2198C11.5563 10.1459 11.4984 10.098 11.4495 10.1129C11.4246 10.1206 11.4069 10.143 11.3985 10.1731L11.3552 10.1282L11.3168 10.1731L11.3976 10.2567C11.3988 10.2624 11.4003 10.2681 11.4021 10.2739C11.4229 10.3419 11.4737 10.3879 11.5197 10.3831L11.7142 10.5844L11.7138 10.5863L11.7167 10.587L11.8305 10.7048C11.8471 10.7386 11.862 10.7698 11.8749 10.7984C11.8888 10.8595 11.9096 10.9273 11.9391 10.9687C11.9418 10.9807 11.9432 10.9907 11.9432 10.9986C11.9432 11.0621 12.0934 11.0998 12.3865 11.1385C12.6161 11.1689 12.8871 11.1892 13.1088 11.1923V11.1927L13.1369 11.1926L13.165 11.1927V11.1923C13.3867 11.1892 13.6577 11.1689 13.8874 11.1385C14.1805 11.0998 14.3307 11.0621 14.3307 10.9986C14.3307 10.9569 14.3684 10.8567 14.4434 10.7048L14.957 10.1731L14.9187 10.1282L14.7774 10.2744C14.78 10.2682 14.7824 10.2617 14.7844 10.255C14.807 10.181 14.7858 10.109 14.737 10.0941C14.6881 10.0791 14.6302 10.127 14.6076 10.2009C14.6032 10.2154 14.6005 10.2299 14.5993 10.2438C14.5858 10.23 14.5692 10.2175 14.55 10.2073C14.4817 10.171 14.4069 10.1781 14.383 10.2232C14.359 10.2682 14.3949 10.3342 14.4632 10.3705C14.5314 10.4068 14.6062 10.3997 14.6302 10.3546L14.6326 10.3495C14.6393 10.3551 14.6468 10.3593 14.6551 10.3618C14.6674 10.3656 14.6803 10.3654 14.6931 10.3617L14.5059 10.5555L14.4882 10.4659C14.4272 10.4805 14.3826 10.4859 14.3566 10.4828V10.3991L14.274 10.4483C14.2333 10.4725 14.1751 10.479 14.0984 10.4653C14.0421 10.4552 14.0041 10.3833 13.9916 10.2299L13.9905 10.2162C14.0101 10.2273 14.0338 10.2354 14.0597 10.239C14.1363 10.2498 14.2041 10.2176 14.2112 10.167C14.2183 10.1165 14.162 10.0668 14.0854 10.056C14.0672 10.0534 14.0495 10.0533 14.033 10.0553C14.0431 10.0315 14.0483 10.0024 14.0467 9.97125C14.0426 9.89403 13.998 9.8336 13.9471 9.83628C13.8961 9.83895 13.858 9.90371 13.8621 9.98092C13.8631 9.99939 13.8663 10.0169 13.8715 10.0328C13.8531 10.0233 13.8316 10.0164 13.8082 10.0131C13.7316 10.0024 13.6638 10.0346 13.6567 10.0852C13.6495 10.1357 13.7059 10.1854 13.7824 10.1962C13.8251 10.2022 13.8651 10.1948 13.8934 10.1783L13.8824 10.217C13.8443 10.3513 13.7862 10.4105 13.7035 10.4105C13.6228 10.4105 13.5903 10.3779 13.5867 10.2958L13.5766 10.0628L13.4808 10.2709C13.4463 10.3458 13.3988 10.3798 13.3311 10.3798C13.239 10.3798 13.176 10.2993 13.1702 10.1713C13.187 10.176 13.2055 10.1786 13.225 10.1786C13.3023 10.1786 13.365 10.1372 13.365 10.0862C13.365 10.0351 13.3023 9.99373 13.225 9.99373C13.2076 9.99373 13.191 9.99581 13.1757 9.99961C13.1819 9.97512 13.1827 9.94648 13.177 9.91686C13.1715 9.88878 13.1609 9.86376 13.1471 9.84385H13.253V9.76655V9.22506C13.3365 9.14519 13.4566 9.10444 13.6156 9.10444C13.8717 9.10444 13.9768 9.17306 14.0369 9.37568C14.0752 9.5048 14.0381 9.61501 13.9177 9.71788L13.9864 9.81521C14.1209 9.7003 14.1802 9.56309 14.1594 9.41104C14.4474 9.40053 14.6627 9.43432 14.8041 9.51026C14.9272 9.57639 14.9497 9.74418 14.8566 10.0361L14.9623 10.0769C15.0719 9.73342 15.0406 9.50014 14.8532 9.39951C14.6882 9.31085 14.4476 9.27476 14.1303 9.28891L14.1306 9.29777C14.0505 9.06913 13.9007 8.9812 13.6156 8.9812C13.4708 8.9812 13.3496 9.01191 13.253 9.07412V9.04282H13.029V9.09708C12.9261 9.01307 12.7897 8.97168 12.6216 8.97168C12.3424 8.97168 12.1929 9.05605 12.1116 9.27441L12.1134 9.22729C11.7961 9.21314 11.5555 9.24923 11.3904 9.3379C11.203 9.43852 11.1717 9.6718 11.2814 10.0153L11.387 9.97445C11.2939 9.68257 11.3164 9.51477 11.4395 9.44864C11.5815 9.37237 11.798 9.33862 12.0879 9.34956C12.0446 9.52236 12.1012 9.67782 12.2508 9.80569L12.3195 9.70836C12.1991 9.60549 12.162 9.49528 12.2003 9.36616ZM13.085 10.0862C13.085 10.0812 13.0856 10.0762 13.0867 10.0714L13.083 10.0705C13.0843 10.0756 13.085 10.0808 13.085 10.0862ZM14.4665 10.5963C14.3748 10.6141 14.3086 10.6123 14.2735 10.5808C14.2185 10.5984 14.154 10.6001 14.0804 10.5869C14.0018 10.5729 13.947 10.5153 13.9141 10.4199C13.8711 10.4802 13.8167 10.5174 13.7516 10.5294C14.1099 10.5853 14.361 10.6639 14.361 10.6639C14.361 10.6639 14.3548 10.7223 14.3397 10.791C14.3557 10.7551 14.3745 10.7151 14.3963 10.671L14.4017 10.6633L14.4665 10.5963ZM13.5825 10.506C13.5513 10.489 13.5264 10.4643 13.5084 10.4324C13.4817 10.4584 13.4513 10.4774 13.4176 10.4891C13.4739 10.4938 13.529 10.4995 13.5825 10.506ZM13.2199 10.4771C13.1762 10.4549 13.14 10.4194 13.1129 10.3739C13.086 10.4191 13.0501 10.4544 13.0068 10.4766C13.0324 10.4758 13.0582 10.4752 13.0841 10.4749V10.4746L13.1065 10.4747L13.129 10.4746V10.4749C13.1594 10.4752 13.1898 10.476 13.2199 10.4771ZM11.868 10.6591L11.8158 10.6051C11.8785 10.6119 11.9249 10.6054 11.9523 10.5808C12.0073 10.5984 12.0718 10.6001 12.1454 10.5869C12.224 10.5729 12.2787 10.5153 12.3117 10.4199C12.3535 10.4784 12.4059 10.5152 12.4686 10.5283C12.1596 10.5761 11.9291 10.6411 11.868 10.6591ZM12.8058 10.4882C12.7515 10.4927 12.6984 10.498 12.6468 10.5041C12.6763 10.4871 12.7 10.4631 12.7174 10.4324C12.7434 10.4577 12.773 10.4764 12.8058 10.4882ZM14.1835 10.9998C14.2227 11.02 14.2542 10.9998 14.279 10.9611C14.2769 10.9718 14.2755 10.9815 14.275 10.9901C14.2717 10.9925 14.2667 10.9953 14.26 10.9984C14.2416 11.0069 14.2134 11.016 14.1768 11.0252C14.1048 11.0433 14.0022 11.0613 13.8807 11.0773C13.6434 11.1087 13.3612 11.1293 13.1369 11.1309C12.9126 11.1293 12.6305 11.1087 12.3932 11.0773C12.2716 11.0613 12.1691 11.0433 12.0971 11.0252C12.0664 11.0175 12.0416 11.0099 12.0235 11.0026L12.0296 10.9998C12.1519 10.9368 12.9608 10.8777 13.1065 10.8675C13.2522 10.8777 14.0611 10.9368 14.1835 10.9998ZM14.3461 10.9885L14.3452 10.9896L14.3457 10.9888L14.3461 10.9885Z" fill="#FECA00"/>
<path d="M12.1272 9.17696L12.1262 9.23857C11.6297 9.22903 11.3449 9.30877 11.2726 9.46768C11.1978 9.63197 11.2117 9.83169 11.3165 10.0689L11.2661 10.0959C11.1543 9.84273 11.1391 9.62345 11.2225 9.4401C11.3084 9.25137 11.6097 9.16702 12.1272 9.17696Z" fill="white"/>
<path d="M12.2232 9.72336L12.1945 9.77626C12.0863 9.70522 12.0322 9.58398 12.0322 9.41689C12.0322 9.17676 12.1446 9.03594 12.3933 8.93957C12.552 8.87807 12.7688 8.90329 13.0443 9.0132L13.0253 9.07113C12.7608 8.96561 12.5561 8.94181 12.4119 8.99769C12.1838 9.08608 12.0882 9.20584 12.0882 9.41689C12.0882 9.56352 12.1332 9.66422 12.2232 9.72336Z" fill="white"/>
<path d="M14.0813 9.23858L14.0823 9.30019C14.5788 9.29065 14.8636 9.37038 14.9359 9.5293C15.0107 9.69359 14.9968 9.89331 14.892 10.1306L14.9424 10.1575C15.0542 9.90435 15.0694 9.68506 14.986 9.50171C14.9001 9.31298 14.5988 9.22864 14.0813 9.23858Z" fill="white"/>
<path d="M13.9062 9.73617L13.9349 9.78908C14.043 9.71803 14.0972 9.59679 14.0972 9.42971C14.0972 9.18957 13.9847 9.04876 13.7361 8.95239C13.5774 8.89089 13.3606 8.91611 13.085 9.02602L13.1041 9.08394C13.3686 8.97843 13.5733 8.95463 13.7175 9.01051C13.9456 9.0989 14.0412 9.21866 14.0412 9.42971C14.0412 9.57633 13.9962 9.67704 13.9062 9.73617Z" fill="white"/>
</g>
<defs>
<clipPath id="clip0_1431_24459">
<rect width="20" height="15" fill="white" transform="translate(0 0.5)"/>
</clipPath>
<clipPath id="clip1_1431_24459">
<rect width="11" height="9" fill="white" transform="translate(0 0.5)"/>
</clipPath>
</defs>
</svg>
