<svg width="20" height="16" viewBox="0 0 20 16" fill="none" xmlns="http://www.w3.org/2000/svg">
<g clip-path="url(#clip0_1431_25060)">
<rect width="20" height="15" transform="translate(0 0.5)" fill="white"/>
<path fill-rule="evenodd" clip-rule="evenodd" d="M0 0.5V15.5H20V0.5H0Z" fill="#2E42A5"/>
<mask id="mask0_1431_25060" style="mask-type:luminance" maskUnits="userSpaceOnUse" x="0" y="0" width="20" height="16">
<path fill-rule="evenodd" clip-rule="evenodd" d="M0 0.5V15.5H20V0.5H0Z" fill="white"/>
</mask>
<g mask="url(#mask0_1431_25060)">
<path d="M-2.22656 14.4284L2.17449 16.2896L20.1003 2.52363L22.4217 -0.242296L17.7154 -0.864393L10.4039 5.06778L4.51893 9.06467L-2.22656 14.4284Z" fill="white"/>
<path d="M-1.62402 15.7324L0.618111 16.8126L21.5881 -0.499277H18.4399L-1.62402 15.7324Z" fill="#F50100"/>
<path d="M22.2271 14.4284L17.826 16.2896L-0.0997791 2.52363L-2.42124 -0.242296L2.28506 -0.864393L9.59656 5.06778L15.4816 9.06467L22.2271 14.4284Z" fill="white"/>
<path d="M22.0767 15.3643L19.8345 16.4444L10.9053 9.03233L8.25794 8.20419L-2.64483 -0.232803H0.503387L11.4 8.00394L14.2944 8.99696L22.0767 15.3643Z" fill="#F50100"/>
<mask id="path-7-inside-1_1431_25060" fill="white">
<path fill-rule="evenodd" clip-rule="evenodd" d="M12.3615 -0.75H7.63926V5.5H-1.23242V10.5H7.63926V16.75H12.3615V10.5H21.2676V5.5H12.3615V-0.75Z"/>
</mask>
<path fill-rule="evenodd" clip-rule="evenodd" d="M12.3615 -0.75H7.63926V5.5H-1.23242V10.5H7.63926V16.75H12.3615V10.5H21.2676V5.5H12.3615V-0.75Z" fill="#F50100"/>
<path d="M7.63926 -0.75V-2H6.38926V-0.75H7.63926ZM12.3615 -0.75H13.6115V-2H12.3615V-0.75ZM7.63926 5.5V6.75H8.88926V5.5H7.63926ZM-1.23242 5.5V4.25H-2.48242V5.5H-1.23242ZM-1.23242 10.5H-2.48242V11.75H-1.23242V10.5ZM7.63926 10.5H8.88926V9.25H7.63926V10.5ZM7.63926 16.75H6.38926V18H7.63926V16.75ZM12.3615 16.75V18H13.6115V16.75H12.3615ZM12.3615 10.5V9.25H11.1115V10.5H12.3615ZM21.2676 10.5V11.75H22.5176V10.5H21.2676ZM21.2676 5.5H22.5176V4.25H21.2676V5.5ZM12.3615 5.5H11.1115V6.75H12.3615V5.5ZM7.63926 0.5H12.3615V-2H7.63926V0.5ZM8.88926 5.5V-0.75H6.38926V5.5H8.88926ZM-1.23242 6.75H7.63926V4.25H-1.23242V6.75ZM0.0175781 10.5V5.5H-2.48242V10.5H0.0175781ZM7.63926 9.25H-1.23242V11.75H7.63926V9.25ZM8.88926 16.75V10.5H6.38926V16.75H8.88926ZM12.3615 15.5H7.63926V18H12.3615V15.5ZM11.1115 10.5V16.75H13.6115V10.5H11.1115ZM21.2676 9.25H12.3615V11.75H21.2676V9.25ZM20.0176 5.5V10.5H22.5176V5.5H20.0176ZM12.3615 6.75H21.2676V4.25H12.3615V6.75ZM11.1115 -0.75V5.5H13.6115V-0.75H11.1115Z" fill="white" mask="url(#path-7-inside-1_1431_25060)"/>
</g>
</g>
<defs>
<clipPath id="clip0_1431_25060">
<rect width="20" height="15" fill="white" transform="translate(0 0.5)"/>
</clipPath>
</defs>
</svg>
