<svg width="211" height="48" viewBox="0 0 211 48" fill="none" xmlns="http://www.w3.org/2000/svg">
<path d="M7.09766 20.6257L7.65072 21.3298L7.71194 21.4094L7.79153 21.5094C8.18034 19.4282 9.05899 17.4695 10.3548 15.7951C9.93975 16.567 9.75488 17.4417 9.82215 18.3155C8.97238 19.2834 8.31444 20.4039 7.88337 21.6176L8.14255 21.9502C8.57261 20.8592 9.17179 19.8427 9.91807 18.938C10.1936 20.14 10.9732 21.3094 12.267 22.3155C11.7323 23.3481 11.295 24.4283 10.9609 25.5421L11.6875 26.4686C12.0002 25.2127 12.4321 23.9894 12.9772 22.8155C14.5269 23.7706 16.2519 24.4062 18.0507 24.6849C17.7895 26.4013 17.5956 28.1115 17.4936 29.7155C17.3507 29.6931 17.2119 29.6625 17.0732 29.636L17.4813 29.7951C17.8636 29.9312 18.2466 30.0672 18.6303 30.2033C19.0813 30.3584 19.5323 30.5094 19.9834 30.6482C21.8387 30.7403 23.6981 30.5838 25.5119 30.1829C25.5487 30.7951 25.565 31.3727 25.563 31.936V31.9727C25.9439 32.0339 26.3215 32.0856 26.6956 32.1278C26.6956 31.9727 26.7058 31.8176 26.7058 31.6543C26.7058 31.0911 26.6854 30.5053 26.6405 29.9053C27.7827 29.5783 28.8838 29.1216 29.9221 28.5441C30.7089 28.1095 31.4401 27.5812 32.0997 26.9706C32.1879 27.5371 32.2322 28.1096 32.2323 28.6829C32.2402 29.5199 32.1239 30.3534 31.8875 31.1564C31.4194 31.5903 30.9125 31.9804 30.3732 32.3217C30.4854 32.3217 30.6017 32.3217 30.7099 32.3217C30.7854 32.3217 30.8568 32.3217 30.9324 32.3094C31.2099 32.1053 31.4732 31.8808 31.714 31.6564C31.6283 31.8713 31.5344 32.0754 31.4323 32.2686H31.4426L31.663 32.2462C31.9977 32.2115 32.3221 32.1686 32.6323 32.1155C34.5024 29.4426 35.3979 26.2087 35.1692 22.9546C34.9404 19.7005 33.6013 16.6236 31.3757 14.2386C29.1501 11.8536 26.1731 10.3051 22.9426 9.85219C19.712 9.39923 16.4239 10.0693 13.6283 11.7502L13.8977 11.7706L11.7915 13.0706C9.46161 15.0243 7.81699 17.6714 7.09766 20.6257ZM11.0017 15.0339C11.3035 14.6974 11.6223 14.3766 11.9568 14.0727C12.8452 13.4972 13.8383 13.1026 14.8793 12.9115C14.3656 13.5043 14.1061 14.2756 14.1568 15.0584C12.7047 15.7547 11.3855 16.6995 10.2589 17.8502C10.1888 16.8552 10.45 15.865 11.0017 15.0339ZM12.6079 21.687C11.363 20.7196 10.616 19.5972 10.3507 18.4421C11.4644 17.2361 12.7697 16.2224 14.214 15.4421C14.3834 16.1768 14.8609 16.8911 15.6426 17.5074C14.4718 18.7777 13.4533 20.1804 12.6079 21.687ZM18.165 23.9625C16.4362 23.6955 14.7784 23.0848 13.2895 22.1666C14.0612 20.6179 14.9957 19.1559 16.0772 17.8053C17.0258 18.3886 18.081 18.7771 19.1813 18.9482C18.7956 20.5441 18.4466 22.2502 18.167 23.9625H18.165ZM19.7854 19.0319C20.9583 19.1643 22.145 19.1023 23.2977 18.8482C23.8266 20.4775 24.2694 22.1335 24.6242 23.8094C22.8157 24.2069 20.9542 24.3048 19.114 24.0992C19.2915 22.3686 19.5242 20.6482 19.7874 19.0319H19.7854ZM18.6487 29.887C18.7181 28.2788 18.8528 26.5584 19.0242 24.8298C20.9428 25.0448 22.8836 24.9428 24.7691 24.5278C25.099 26.1784 25.3347 27.8464 25.4752 29.5237C23.2357 30.0183 20.9301 30.141 18.6507 29.887H18.6487ZM23.8752 18.7074C24.4563 18.5388 25.0169 18.306 25.5466 18.0135C25.9474 17.7915 26.3202 17.5222 26.6568 17.2115C27.9004 18.4095 28.9879 19.7596 29.8936 21.2298C29.3655 21.7183 28.7803 22.1411 28.1507 22.489C27.3194 22.9508 26.4382 23.3165 25.5242 23.5788C25.0807 21.921 24.5299 20.2937 23.8752 18.7074ZM30.9446 15.0992C31.2664 15.6024 31.4901 16.1619 31.6038 16.7482C30.4842 15.7103 29.1744 14.8988 27.7466 14.3584C27.6058 13.6217 27.1589 12.9013 26.3997 12.2768C26.9841 12.3322 27.5577 12.4696 28.1038 12.6849C29.1572 13.3529 30.1131 14.1633 30.9446 15.0931V15.0992ZM31.6752 17.3441C31.7262 18.5013 31.2977 19.6625 30.4017 20.7013C29.4381 19.2765 28.287 17.988 26.9793 16.8706C27.5178 16.2901 27.8104 15.5235 27.7956 14.7319C29.2377 15.3562 30.5528 16.2403 31.6752 17.34V17.3441ZM29.8385 27.8992C28.8102 28.4702 27.7201 28.9221 26.5895 29.2462C26.4159 27.5753 26.1212 25.9192 25.7079 24.2911C26.6596 24.018 27.5771 23.6373 28.4426 23.1564C29.0978 22.7941 29.7069 22.3542 30.2568 21.8462C31.0611 23.2456 31.6467 24.7596 31.9936 26.336C31.34 26.9387 30.6165 27.4608 29.8385 27.8911V27.8992ZM30.7854 21.2972C31.7181 20.2155 32.163 19.0074 32.1099 17.8033C32.892 18.6655 33.5096 19.6636 33.9323 20.7482C34.041 21.1822 34.1268 21.6216 34.1895 22.0645C34.116 23.3176 33.5895 24.5584 32.6181 25.6829C32.2545 24.1282 31.6352 22.6448 30.7854 21.2931V21.2972ZM32.8589 30.0604C32.7487 30.2094 32.6344 30.3584 32.5079 30.5053C32.7603 29.7018 32.8863 28.8639 32.8813 28.0217C32.8827 27.4507 32.8356 26.8806 32.7405 26.3176C33.574 25.3956 34.1134 24.2459 34.2895 23.0155C34.3119 23.3339 34.3283 23.6543 34.3283 23.9788C34.3279 26.0926 33.8242 28.1759 32.8589 30.0564V30.0604ZM33.3589 18.987C32.9936 18.3331 32.5495 17.7265 32.0364 17.1809C31.9461 16.7183 31.7886 16.2714 31.5691 15.8543C32.3035 16.812 32.9056 17.8644 33.3589 18.9829V18.987ZM21.4568 13.1421L21.4915 13.1686C23.0691 12.4972 24.5528 12.1992 25.8834 12.24C26.5711 12.8053 26.9772 13.4645 27.1079 14.1237C25.3408 13.5482 23.4852 13.2925 21.6283 13.3686C21.6294 13.3801 21.6294 13.3918 21.6283 13.4033C23.5128 13.4369 25.3772 13.7974 27.1385 14.4686C27.1556 15.1837 26.8927 15.8772 26.4058 16.4013C24.9396 15.2259 23.3014 14.2829 21.5487 13.6053L21.5181 13.636C23.1947 14.4226 24.745 15.4543 26.1181 16.6972C25.8125 16.9781 25.4748 17.222 25.1119 17.4237C24.6335 17.6897 24.1261 17.8999 23.5997 18.0502C22.9598 16.5482 22.1737 15.1127 21.2528 13.7645L21.1977 13.7788C21.9444 15.19 22.5737 16.6603 23.0793 18.1747C22.0356 18.403 20.9616 18.4595 19.8997 18.3421C20.1915 16.6441 20.5119 15.087 20.8609 13.7972H20.8038C20.2274 15.2565 19.7454 16.7515 19.3609 18.2727C18.365 18.1181 17.4098 17.7671 16.5507 17.24C17.6993 15.8793 19.0302 14.6837 20.5058 13.687L20.4895 13.6768L20.465 13.6584C18.878 14.5467 17.4277 15.6595 16.1589 16.9625C15.5222 16.5086 15.0628 15.8479 14.8589 15.0931C16.5789 14.2495 18.4272 13.6977 20.3283 13.4604V13.4257C18.4299 13.5511 16.5666 13.9983 14.8181 14.7482C14.7714 14.0395 15.0069 13.3411 15.4732 12.8053C17.1275 12.6101 18.8041 12.7489 20.4038 13.2135C20.414 13.2135 20.4221 13.1911 20.4344 13.1809C18.9376 12.6297 17.3428 12.3949 15.7507 12.4911C16.0759 12.1715 16.4424 11.8969 16.8405 11.6747C17.2759 11.432 17.7355 11.2357 18.2119 11.089C18.963 11.3543 19.8038 11.9911 20.6936 13.0257L20.7466 13.0094C20.0242 11.9319 19.3385 11.2502 18.7262 10.9482C19.762 10.7092 20.8299 10.6416 21.8875 10.7482C21.6405 11.1094 21.365 11.8564 21.0711 13.0053H21.1283C21.5956 11.8788 22.0385 11.1523 22.4323 10.8074C23.5172 10.9555 24.5569 11.3378 25.4793 11.9278C25.6405 11.9278 25.7997 11.9278 25.9528 11.9278C24.9329 11.277 23.7841 10.855 22.5854 10.6911C22.5854 10.6911 22.5854 10.6911 22.5977 10.6911C24.2576 10.8949 25.8641 11.4107 27.3323 12.2115C25.7181 11.7298 23.6834 11.9972 21.4568 13.138V13.1421ZM19.9732 10.636C19.4686 10.677 18.9679 10.7562 18.4752 10.8727C18.4426 10.8604 18.4099 10.8543 18.3752 10.8441C18.9032 10.742 19.4368 10.6711 19.9732 10.6319V10.636ZM17.6977 10.9951C17.767 11.0053 17.8364 11.0135 17.9017 11.0298C17.376 11.1927 16.8685 11.4095 16.3875 11.6768C15.9472 11.9194 15.5415 12.22 15.1813 12.5706C14.3887 12.6807 13.6198 12.9214 12.9058 13.2829C14.3334 12.2057 15.963 11.4263 17.6977 10.9911V10.9951Z" fill="black"/>
<path d="M25.4228 36.5829C25.8146 36.2135 26.1309 35.6258 26.3513 34.8258C26.0268 34.7789 25.6942 34.7217 25.3656 34.6666C25.0371 34.6115 24.7534 34.5605 24.4554 34.5013C22.5391 34.8247 20.5871 34.8803 18.6554 34.6666C18.6228 34.1646 18.6024 33.5993 18.5942 32.9666C18.2003 32.836 17.8044 32.6993 17.4105 32.5584C17.4105 33.287 17.4493 33.9401 17.5064 34.5054C15.3024 34.1299 13.2207 33.3931 11.5289 32.3033C11.328 31.5167 11.2312 30.707 11.2411 29.8952L10.833 29.6911L10.384 29.6482C10.4006 30.3493 10.5035 31.0457 10.6901 31.7217C10.0543 31.235 9.48721 30.6646 9.0044 30.0258C8.9146 29.8503 8.82889 29.6707 8.74726 29.4911L8.64318 29.4809L8.54318 29.4707L7.76562 29.3972C8.60182 31.4375 9.90077 33.2556 11.56 34.7078C13.2191 36.1601 15.1932 37.2069 17.3262 37.7656C19.4593 38.3243 21.693 38.3796 23.8511 37.9272C26.0091 37.4747 28.0325 36.5269 29.7615 35.1584C29.3234 35.138 28.8785 35.1088 28.4268 35.0707C27.4937 35.7002 26.4842 36.2083 25.4228 36.5829ZM25.3513 34.7584C25.1636 35.7788 24.8677 36.4768 24.486 36.8686C22.7226 37.2574 20.907 37.3526 19.1126 37.1503C18.9228 36.7891 18.7779 36.1033 18.6901 35.1095C20.9148 35.3574 23.165 35.2388 25.3513 34.7584ZM17.5595 34.9482C17.6942 35.9503 17.9146 36.6482 18.2003 37.0237C17.8248 36.9605 17.4534 36.8788 17.086 36.7891C15.417 36.2838 13.8628 35.4574 12.5105 34.3564C12.1489 33.8798 11.8671 33.3477 11.6758 32.7809C13.3473 33.8544 15.3881 34.5809 17.5595 34.9482ZM9.51256 30.9278C9.91532 31.3959 10.3646 31.8219 10.8534 32.1993C11.0127 32.6309 11.223 33.042 11.4799 33.4237C10.7276 32.6727 10.0671 31.8348 9.51256 30.9278Z" fill="black"/>
<path d="M38.5267 25.6318L38.9981 24.791L39.6247 23.6665L35.339 20.9298C35.8198 22.0289 36.1764 23.1782 36.4022 24.3563C36.6754 25.7127 36.85 27.087 36.9247 28.4686L37.7206 27.04C38.3879 29.4767 37.3532 31.4421 34.7328 32.4176C34.3474 32.5603 33.9534 32.6789 33.5532 32.7727C33.0043 32.9033 32.4328 33.0094 31.8512 33.0931C31.5145 33.1441 31.1736 33.1849 30.8308 33.2216H30.7777L30.5532 33.2441C30.1328 33.2808 29.7022 33.3012 29.2655 33.3135C28.9798 33.3237 28.69 33.3278 28.3981 33.3257C27.8185 33.3257 27.2247 33.2951 26.6226 33.2482C26.2614 33.2196 25.8961 33.1829 25.5267 33.14C23.1562 32.8426 20.8279 32.2729 18.5879 31.4421C18.2022 31.2992 17.8104 31.1482 17.4185 30.989C16.7512 30.7196 16.0798 30.4298 15.4002 30.1094L13.8369 30.1808C14.9941 30.7563 16.19 31.2706 17.4002 31.7319C17.7941 31.8808 18.1859 32.0237 18.5818 32.1604C20.821 32.9477 23.1242 33.5397 25.4655 33.9298C25.8185 33.9849 26.1696 34.0421 26.5145 34.087C26.7961 34.1237 27.0716 34.1502 27.3471 34.1808C28.0451 34.2563 28.7287 34.3114 29.3879 34.34C29.8206 34.3563 30.2464 34.3638 30.6655 34.3625C32.1684 34.3736 33.6677 34.2147 35.1349 33.889C35.5795 33.7846 36.0171 33.6524 36.4451 33.4931C40.2879 32.0665 40.8328 29.0523 38.5267 25.6318Z" fill="white"/>
<path d="M8.19177 28.5706L8.38157 28.5869L8.98157 28.6461L10.3979 28.7828L11.0959 28.8502L11.2877 28.8685L12.553 28.989L12.3346 28.7073L11.9693 28.242L11.453 27.5849L10.6877 26.6094L10.5673 26.4624L7.85912 23.0114L7.81626 22.9543L7.61218 22.7053L7.58565 22.6686L7.55912 22.6359L7.23259 22.2277L6.97544 23.9359L6.82647 24.9277L6.71422 24.8339C6.48157 24.6461 6.253 24.4563 6.03871 24.2685C1.22238 20.0645 0.630548 15.9012 5.15708 14.2155C5.54289 14.0744 5.93679 13.9565 6.33667 13.8624C7.41963 13.6201 8.52495 13.4915 9.63463 13.4788C10.0203 13.193 10.5673 12.8073 11.1999 12.4216C8.79381 12.2318 6.59177 12.3277 4.75708 12.7645C4.31027 12.8673 3.87058 12.9988 3.44075 13.1583C-2.0266 15.1992 -0.798025 20.4665 5.84687 25.5379C6.10674 25.7339 6.3734 25.9298 6.64687 26.1257L6.50402 27.0767L6.29993 28.3951L7.42034 28.5032L8.17341 28.5747L8.19177 28.5706Z" fill="white"/>
<path d="M53.992 33V15.504H66.664V18.84H57.928V23.088H65.704V26.256H57.928V33H53.992ZM72.6897 33.24C70.9777 33.24 69.7297 32.664 68.9457 31.512C68.1617 30.344 67.7697 28.792 67.7697 26.856V26.304C67.7697 24.048 68.2097 22.416 69.0897 21.408C69.9857 20.384 71.1937 19.872 72.7137 19.872C73.5457 19.872 74.2977 20.064 74.9697 20.448C75.6577 20.816 76.1617 21.336 76.4817 22.008H76.6497L76.8417 20.112H80.3217V33H76.6497V31.104H76.4817C76.1617 31.776 75.6577 32.304 74.9697 32.688C74.2977 33.056 73.5377 33.24 72.6897 33.24ZM74.1777 30.24C74.9297 30.24 75.5297 30.016 75.9777 29.568C76.4257 29.104 76.6497 28.456 76.6497 27.624V25.512C76.6497 24.68 76.4257 24.032 75.9777 23.568C75.5297 23.104 74.9297 22.872 74.1777 22.872C73.3937 22.872 72.7857 23.104 72.3537 23.568C71.9217 24.016 71.7057 24.648 71.7057 25.464V27.672C71.7057 28.488 71.9217 29.12 72.3537 29.568C72.7857 30.016 73.3937 30.24 74.1777 30.24ZM88.4314 33.24C86.5914 33.24 85.1834 32.84 84.2074 32.04C83.2474 31.24 82.7754 30.2 82.7914 28.92H86.3194C86.3514 29.56 86.5674 30.016 86.9674 30.288C87.3834 30.56 87.9114 30.696 88.5514 30.696C89.1914 30.696 89.6474 30.576 89.9194 30.336C90.2074 30.096 90.3514 29.792 90.3514 29.424C90.3514 28.864 90.1514 28.496 89.7514 28.32C89.3514 28.128 88.7274 27.968 87.8794 27.84C87.1114 27.728 86.3594 27.552 85.6234 27.312C84.8874 27.056 84.2794 26.672 83.7994 26.16C83.3354 25.648 83.1034 24.936 83.1034 24.024C83.1034 23.128 83.3274 22.376 83.7754 21.768C84.2394 21.144 84.8714 20.672 85.6714 20.352C86.4714 20.032 87.3914 19.872 88.4314 19.872C90.0154 19.872 91.2954 20.224 92.2714 20.928C93.2474 21.632 93.7594 22.624 93.8074 23.904L90.3274 23.88C90.3274 23.384 90.1514 23.008 89.7994 22.752C89.4634 22.48 89.0074 22.344 88.4314 22.344C87.8714 22.344 87.4474 22.456 87.1594 22.68C86.8714 22.904 86.7274 23.2 86.7274 23.568C86.7274 24.08 86.9594 24.416 87.4234 24.576C87.9034 24.736 88.5034 24.872 89.2234 24.984C89.8314 25.064 90.4234 25.176 90.9994 25.32C91.5754 25.448 92.0954 25.656 92.5594 25.944C93.0394 26.232 93.4154 26.632 93.6874 27.144C93.9594 27.64 94.0954 28.296 94.0954 29.112C94.0954 30.392 93.5994 31.4 92.6074 32.136C91.6154 32.872 90.2234 33.24 88.4314 33.24ZM100.989 33C99.9649 33 99.2289 32.736 98.7809 32.208C98.3489 31.68 98.1329 30.992 98.1329 30.144V23.088H95.3489V20.112H98.1329V16.08H101.829V20.112H104.997V23.088H101.829V30.12H104.853V33H100.989ZM107.851 33V15.504H115.987C118.131 15.504 119.731 16.04 120.787 17.112C121.859 18.184 122.395 19.632 122.395 21.456C122.395 23.264 121.851 24.712 120.763 25.8C119.691 26.888 118.035 27.432 115.795 27.432H111.787V33H107.851ZM115.459 18.864H111.787V24.312H115.459C116.355 24.312 117.043 24.104 117.523 23.688C118.019 23.272 118.267 22.696 118.267 21.96V21.216C118.267 20.448 118.011 19.864 117.499 19.464C117.003 19.064 116.323 18.864 115.459 18.864ZM125 33V22.968C125 22.104 125.264 21.416 125.792 20.904C126.32 20.376 127.008 20.112 127.856 20.112H133.112V23.088H128.696V33H125ZM140.665 33.24C138.569 33.24 137.009 32.648 135.985 31.464C134.961 30.264 134.449 28.656 134.449 26.64V26.568C134.449 24.296 135.017 22.616 136.153 21.528C137.289 20.424 138.793 19.872 140.665 19.872C142.553 19.872 144.065 20.424 145.201 21.528C146.353 22.616 146.929 24.296 146.929 26.568V26.64C146.913 28.656 146.393 30.264 145.369 31.464C144.345 32.648 142.777 33.24 140.665 33.24ZM140.665 30.264C141.481 30.264 142.097 30.04 142.513 29.592C142.945 29.144 143.161 28.528 143.161 27.744V25.44C143.161 24.64 142.937 24.016 142.489 23.568C142.057 23.104 141.449 22.872 140.665 22.872C139.897 22.872 139.289 23.104 138.841 23.568C138.409 24.016 138.193 24.64 138.193 25.44V27.744C138.193 28.528 138.401 29.144 138.817 29.592C139.249 30.04 139.865 30.264 140.665 30.264ZM147.395 33L152.099 26.208L147.755 20.112H152.075L154.547 24.072H154.739L157.187 20.112H161.483L157.163 26.184L161.843 33H157.427L154.643 28.68H154.427L151.643 33H147.395ZM162.952 37.008V34.128H167.512V31.608L162.424 20.112H166.264L168.856 27.048L169.24 28.272H169.384L169.768 27.048L172.432 20.112H176.272L171.184 31.608V34.656C171.184 35.456 170.96 36.048 170.512 36.432C170.064 36.816 169.464 37.008 168.712 37.008H162.952ZM176.086 33V29.664H179.59V33H176.086ZM187.604 37.248C185.924 37.248 184.596 36.888 183.62 36.168C182.644 35.464 182.124 34.528 182.06 33.36H185.612C185.676 33.792 185.916 34.12 186.332 34.344C186.748 34.568 187.268 34.68 187.892 34.68C188.852 34.68 189.532 34.464 189.932 34.032C190.348 33.616 190.556 33.008 190.556 32.208V29.976H190.388C190.068 30.696 189.564 31.248 188.876 31.632C188.204 32 187.436 32.184 186.572 32.184C184.924 32.184 183.692 31.64 182.876 30.552C182.076 29.448 181.676 27.968 181.676 26.112V26.016C181.676 23.984 182.108 22.456 182.972 21.432C183.836 20.392 185.044 19.872 186.596 19.872C187.604 19.872 188.412 20.064 189.02 20.448C189.628 20.832 190.084 21.328 190.388 21.936H190.58L190.772 20.112H194.252V31.776C194.252 33.664 193.684 35.048 192.548 35.928C191.412 36.808 189.764 37.248 187.604 37.248ZM188.084 29.256C188.868 29.256 189.476 29.024 189.908 28.56C190.34 28.08 190.556 27.464 190.556 26.712V25.368C190.556 24.568 190.332 23.944 189.884 23.496C189.436 23.032 188.836 22.8 188.084 22.8C187.3 22.8 186.692 23.024 186.26 23.472C185.844 23.92 185.636 24.536 185.636 25.32V26.808C185.636 27.576 185.852 28.176 186.284 28.608C186.732 29.04 187.332 29.256 188.084 29.256ZM202.627 37.248C200.947 37.248 199.619 36.888 198.643 36.168C197.667 35.464 197.147 34.528 197.083 33.36H200.635C200.699 33.792 200.939 34.12 201.355 34.344C201.771 34.568 202.291 34.68 202.915 34.68C203.875 34.68 204.555 34.464 204.955 34.032C205.371 33.616 205.579 33.008 205.579 32.208V29.976H205.411C205.091 30.696 204.587 31.248 203.899 31.632C203.227 32 202.459 32.184 201.595 32.184C199.947 32.184 198.715 31.64 197.899 30.552C197.099 29.448 196.699 27.968 196.699 26.112V26.016C196.699 23.984 197.131 22.456 197.995 21.432C198.859 20.392 200.067 19.872 201.619 19.872C202.627 19.872 203.435 20.064 204.043 20.448C204.651 20.832 205.107 21.328 205.411 21.936H205.603L205.795 20.112H209.275V31.776C209.275 33.664 208.707 35.048 207.571 35.928C206.435 36.808 204.787 37.248 202.627 37.248ZM203.107 29.256C203.891 29.256 204.499 29.024 204.931 28.56C205.363 28.08 205.579 27.464 205.579 26.712V25.368C205.579 24.568 205.355 23.944 204.907 23.496C204.459 23.032 203.859 22.8 203.107 22.8C202.323 22.8 201.715 23.024 201.283 23.472C200.867 23.92 200.659 24.536 200.659 25.32V26.808C200.659 27.576 200.875 28.176 201.307 28.608C201.755 29.04 202.355 29.256 203.107 29.256Z" fill="black"/>
</svg>
