<svg width="211" height="48" viewBox="0 0 211 48" fill="none" xmlns="http://www.w3.org/2000/svg">
<path d="M7.09814 20.6258L7.65121 21.3299L7.71243 21.4095L7.79202 21.5095C8.18083 19.4283 9.05947 17.4695 10.3553 15.7952C9.94023 16.5671 9.75537 17.4418 9.82264 18.3156C8.97287 19.2834 8.31492 20.404 7.88386 21.6176L8.14304 21.9503C8.5731 20.8592 9.17228 19.8427 9.91855 18.9381C10.1941 20.1401 10.9737 21.3095 12.2675 22.3156C11.7327 23.3481 11.2955 24.4283 10.9614 25.5421L11.6879 26.4687C12.0007 25.2127 12.4326 23.9895 12.9777 22.8156C14.5274 23.7707 16.2524 24.4063 18.0512 24.685C17.79 26.4013 17.5961 28.1115 17.4941 29.7156C17.3512 29.6932 17.2124 29.6625 17.0737 29.636L17.4818 29.7952C17.8641 29.9313 18.2471 30.0673 18.6308 30.2034C19.0818 30.3585 19.5328 30.5095 19.9839 30.6483C21.8392 30.7404 23.6986 30.5839 25.5124 30.183C25.5492 30.7952 25.5655 31.3727 25.5634 31.936V31.9727C25.9444 32.034 26.322 32.0857 26.6961 32.1278C26.6961 31.9727 26.7063 31.8176 26.7063 31.6544C26.7063 31.0911 26.6859 30.5054 26.641 29.9054C27.7832 29.5783 28.8843 29.1216 29.9226 28.5442C30.7094 28.1096 31.4406 27.5812 32.1002 26.9707C32.1883 27.5372 32.2327 28.1096 32.2328 28.683C32.2406 29.52 32.1244 30.3535 31.8879 31.1564C31.4199 31.5904 30.913 31.9805 30.3737 32.3217C30.4859 32.3217 30.6022 32.3217 30.7104 32.3217C30.7859 32.3217 30.8573 32.3217 30.9328 32.3095C31.2104 32.1054 31.4737 31.8809 31.7145 31.6564C31.6288 31.8714 31.5349 32.0755 31.4328 32.2687H31.443L31.6634 32.2462C31.9981 32.2115 32.3226 32.1687 32.6328 32.1156C34.5029 29.4427 35.3984 26.2087 35.1697 22.9547C34.9409 19.7006 33.6018 16.6237 31.3762 14.2387C29.1506 11.8537 26.1736 10.3052 22.943 9.85225C19.7125 9.3993 16.4244 10.0693 13.6288 11.7503L13.8981 11.7707L11.792 13.0707C9.4621 15.0244 7.81748 17.6715 7.09814 20.6258ZM11.0022 15.034C11.304 14.6975 11.6228 14.3767 11.9573 14.0727C12.8457 13.4973 13.8388 13.1027 14.8798 12.9115C14.3661 13.5044 14.1066 14.2757 14.1573 15.0585C12.7052 15.7548 11.386 16.6996 10.2594 17.8503C10.1893 16.8553 10.4505 15.865 11.0022 15.034ZM12.6083 21.687C11.3635 20.7197 10.6165 19.5972 10.3512 18.4421C11.4649 17.2361 12.7702 16.2225 14.2145 15.4421C14.3839 16.1768 14.8614 16.8911 15.643 17.5074C14.4723 18.7778 13.4538 20.1805 12.6083 21.687ZM18.1655 23.9625C16.4367 23.6955 14.7789 23.0849 13.29 22.1666C14.0617 20.618 14.9962 19.156 16.0777 17.8054C17.0263 18.3886 18.0815 18.7771 19.1818 18.9483C18.7961 20.5442 18.4471 22.2503 18.1675 23.9625H18.1655ZM19.7859 19.0319C20.9588 19.1644 22.1455 19.1023 23.2981 18.8483C23.8271 20.4776 24.2699 22.1336 24.6247 23.8095C22.8162 24.207 20.9547 24.3049 19.1145 24.0993C19.292 22.3687 19.5247 20.6483 19.7879 19.0319H19.7859ZM18.6492 29.887C18.7186 28.2789 18.8532 26.5585 19.0247 24.8299C20.9432 25.0449 22.8841 24.9428 24.7696 24.5279C25.0994 26.1784 25.3352 27.8464 25.4757 29.5238C23.2362 30.0184 20.9306 30.1411 18.6512 29.887H18.6492ZM23.8757 18.7074C24.4568 18.5388 25.0174 18.3061 25.5471 18.0136C25.9479 17.7915 26.3206 17.5223 26.6573 17.2115C27.9009 18.4095 28.9884 19.7597 29.8941 21.2299C29.366 21.7184 28.7808 22.1412 28.1512 22.4891C27.3199 22.9509 26.4387 23.3165 25.5247 23.5789C25.0812 21.921 24.5304 20.2938 23.8757 18.7074ZM30.9451 15.0993C31.2669 15.6024 31.4906 16.1619 31.6043 16.7483C30.4847 15.7104 29.1749 14.8989 27.7471 14.3585C27.6063 13.6217 27.1594 12.9013 26.4002 12.2768C26.9846 12.3322 27.5582 12.4696 28.1043 12.685C29.1576 13.353 30.1136 14.1634 30.9451 15.0932V15.0993ZM31.6757 17.3442C31.7267 18.5013 31.2981 19.6625 30.4022 20.7013C29.4386 19.2766 28.2874 17.9881 26.9798 16.8707C27.5183 16.2902 27.8108 15.5236 27.7961 14.7319C29.2382 15.3562 30.5532 16.2403 31.6757 17.3401V17.3442ZM29.839 27.8993C28.8107 28.4702 27.7206 28.9221 26.59 29.2462C26.4164 27.5754 26.1217 25.9193 25.7083 24.2911C26.6601 24.0181 27.5776 23.6374 28.443 23.1564C29.0982 22.7942 29.7074 22.3543 30.2573 21.8462C31.0616 23.2456 31.6472 24.7597 31.9941 26.336C31.3405 26.9388 30.617 27.4609 29.839 27.8911V27.8993ZM30.7859 21.2972C31.7186 20.2156 32.1634 19.0074 32.1104 17.8034C32.8925 18.6656 33.5101 19.6636 33.9328 20.7483C34.0415 21.1822 34.1273 21.6216 34.19 22.0646C34.1165 23.3176 33.59 24.5585 32.6185 25.683C32.255 24.1283 31.6357 22.6448 30.7859 21.2932V21.2972ZM32.8594 30.0605C32.7492 30.2095 32.6349 30.3585 32.5084 30.5054C32.7608 29.7019 32.8868 28.864 32.8818 28.0217C32.8832 27.4507 32.8361 26.8807 32.741 26.3176C33.5745 25.3957 34.1139 24.2459 34.29 23.0156C34.3124 23.334 34.3288 23.6544 34.3288 23.9789C34.3284 26.0926 33.8247 28.176 32.8594 30.0564V30.0605ZM33.3594 18.987C32.9941 18.3332 32.55 17.7266 32.0369 17.1809C31.9465 16.7183 31.7891 16.2715 31.5696 15.8544C32.304 16.8121 32.906 17.8644 33.3594 18.983V18.987ZM21.4573 13.1421L21.492 13.1687C23.0696 12.4972 24.5532 12.1993 25.8839 12.2401C26.5716 12.8054 26.9777 13.4646 27.1083 14.1238C25.3412 13.5482 23.4857 13.2925 21.6288 13.3687C21.6299 13.3802 21.6299 13.3918 21.6288 13.4034C23.5133 13.437 25.3777 13.7974 27.139 14.4687C27.1561 15.1838 26.8932 15.8773 26.4063 16.4013C24.9401 15.2259 23.3019 14.283 21.5492 13.6054L21.5186 13.636C23.1952 14.4226 24.7455 15.4543 26.1186 16.6972C25.813 16.9782 25.4753 17.2221 25.1124 17.4238C24.6339 17.6897 24.1266 17.8999 23.6002 18.0503C22.9603 16.5482 22.1742 15.1128 21.2532 13.7646L21.1981 13.7789C21.9449 15.1901 22.5742 16.6603 23.0798 18.1748C22.0361 18.403 20.9621 18.4595 19.9002 18.3421C20.192 16.6442 20.5124 15.087 20.8614 13.7972H20.8043C20.2278 15.2566 19.7459 16.7515 19.3614 18.2727C18.3655 18.1182 17.4103 17.7671 16.5512 17.2401C17.6998 15.8794 19.0307 14.6837 20.5063 13.687L20.49 13.6768L20.4655 13.6585C18.8785 14.5467 17.4281 15.6596 16.1594 16.9625C15.5227 16.5087 15.0633 15.848 14.8594 15.0932C16.5794 14.2495 18.4277 13.6978 20.3288 13.4605V13.4258C18.4303 13.5511 16.5671 13.9983 14.8186 14.7483C14.7718 14.0395 15.0073 13.3411 15.4737 12.8054C17.1279 12.6102 18.8046 12.749 20.4043 13.2136C20.4145 13.2136 20.4226 13.1911 20.4349 13.1809C18.9381 12.6298 17.3433 12.3949 15.7512 12.4911C16.0764 12.1715 16.4429 11.897 16.841 11.6748C17.2764 11.432 17.736 11.2357 18.2124 11.0891C18.9635 11.3544 19.8043 11.9911 20.6941 13.0258L20.7471 13.0095C20.0247 11.9319 19.339 11.2503 18.7267 10.9483C19.7624 10.7093 20.8303 10.6417 21.8879 10.7483C21.641 11.1095 21.3655 11.8564 21.0716 13.0054H21.1288C21.5961 11.8789 22.039 11.1523 22.4328 10.8074C23.5177 10.9556 24.5574 11.3379 25.4798 11.9279C25.641 11.9279 25.8002 11.9279 25.9532 11.9279C24.9334 11.277 23.7846 10.8551 22.5859 10.6911C22.5859 10.6911 22.5859 10.6911 22.5981 10.6911C24.2581 10.8949 25.8646 11.4108 27.3328 12.2115C25.7186 11.7299 23.6839 11.9972 21.4573 13.1381V13.1421ZM19.9737 10.636C19.4691 10.6771 18.9683 10.7562 18.4757 10.8727C18.443 10.8605 18.4104 10.8544 18.3757 10.8442C18.9037 10.7421 19.4373 10.6712 19.9737 10.6319V10.636ZM17.6981 10.9952C17.7675 11.0054 17.8369 11.0136 17.9022 11.0299C17.3765 11.1927 16.869 11.4095 16.3879 11.6768C15.9477 11.9194 15.542 12.2201 15.1818 12.5707C14.3892 12.6807 13.6202 12.9214 12.9063 13.283C14.3339 12.2057 15.9635 11.4264 17.6981 10.9911V10.9952Z" fill="white"/>
<path d="M25.4223 36.583C25.8141 36.2136 26.1304 35.6258 26.3508 34.8258C26.0264 34.7789 25.6937 34.7217 25.3651 34.6666C25.0366 34.6115 24.7529 34.5605 24.4549 34.5013C22.5386 34.8247 20.5866 34.8803 18.6549 34.6666C18.6223 34.1646 18.6019 33.5993 18.5937 32.9666C18.1998 32.836 17.8039 32.6993 17.41 32.5585C17.41 33.287 17.4488 33.9401 17.506 34.5054C15.3019 34.1299 13.2202 33.3932 11.5284 32.3034C11.3275 31.5167 11.2308 30.7071 11.2406 29.8952L10.8325 29.6911L10.3835 29.6483C10.4002 30.3494 10.503 31.0457 10.6896 31.7217C10.0538 31.2351 9.48672 30.6646 9.00391 30.0258C8.91411 29.8503 8.8284 29.6707 8.74677 29.4911L8.64269 29.4809L8.54269 29.4707L7.76514 29.3972C8.60133 31.4375 9.90028 33.2556 11.5595 34.7079C13.2187 36.1602 15.1927 37.207 17.3257 37.7657C19.4588 38.3244 21.6925 38.3796 23.8506 37.9272C26.0086 37.4747 28.032 36.5269 29.7611 35.1585C29.323 35.1381 28.8781 35.1088 28.4264 35.0707C27.4932 35.7002 26.4837 36.2084 25.4223 36.583ZM25.3508 34.7585C25.1631 35.7789 24.8672 36.4768 24.4855 36.8687C22.7221 37.2575 20.9065 37.3526 19.1121 37.1503C18.9223 36.7891 18.7774 36.1034 18.6896 35.1095C20.9143 35.3574 23.1646 35.2388 25.3508 34.7585ZM17.559 34.9483C17.6937 35.9503 17.9141 36.6483 18.1998 37.0238C17.8243 36.9605 17.4529 36.8789 17.0855 36.7891C15.4165 36.2838 13.8623 35.4575 12.51 34.3564C12.1485 33.8798 11.8666 33.3478 11.6753 32.7809C13.3468 33.8544 15.3876 34.5809 17.559 34.9483ZM9.51207 30.9279C9.91483 31.396 10.3641 31.822 10.8529 32.1993C11.0122 32.631 11.2225 33.042 11.4794 33.4238C10.7271 32.6727 10.0667 31.8348 9.51207 30.9279Z" fill="white"/>
<path d="M38.5267 25.6319L38.9981 24.7911L39.6247 23.6666L35.339 20.9299C35.8198 22.029 36.1764 23.1783 36.4022 24.3564C36.6754 25.7128 36.85 27.0871 36.9247 28.4687L37.7206 27.0401C38.3879 29.4768 37.3532 31.4421 34.7328 32.4177C34.3474 32.5604 33.9534 32.679 33.5532 32.7728C33.0043 32.9034 32.4328 33.0095 31.8512 33.0932C31.5145 33.1442 31.1736 33.185 30.8308 33.2217H30.7777L30.5532 33.2442C30.1328 33.2809 29.7022 33.3013 29.2655 33.3136C28.9798 33.3238 28.69 33.3279 28.3981 33.3258C27.8185 33.3258 27.2247 33.2952 26.6226 33.2483C26.2614 33.2197 25.8961 33.183 25.5267 33.1401C23.1562 32.8427 20.8279 32.2729 18.5879 31.4421C18.2022 31.2993 17.8104 31.1483 17.4185 30.9891C16.7512 30.7197 16.0798 30.4299 15.4002 30.1095L13.8369 30.1809C14.9941 30.7564 16.19 31.2707 17.4002 31.7319C17.7941 31.8809 18.1859 32.0238 18.5818 32.1605C20.821 32.9478 23.1242 33.5398 25.4655 33.9299C25.8185 33.985 26.1696 34.0421 26.5145 34.087C26.7961 34.1238 27.0716 34.1503 27.3471 34.1809C28.0451 34.2564 28.7287 34.3115 29.3879 34.3401C29.8206 34.3564 30.2464 34.3639 30.6655 34.3626C32.1684 34.3736 33.6677 34.2148 35.1349 33.8891C35.5795 33.7847 36.0171 33.6525 36.4451 33.4932C40.2879 32.0666 40.8328 29.0523 38.5267 25.6319Z" fill="#04FDF9"/>
<path d="M8.19177 28.5707L8.38157 28.587L8.98157 28.6462L10.3979 28.783L11.0959 28.8503L11.2877 28.8687L12.553 28.9891L12.3346 28.7074L11.9693 28.2421L11.453 27.585L10.6877 26.6095L10.5673 26.4625L7.85912 23.0115L7.81626 22.9544L7.61218 22.7054L7.58565 22.6687L7.55912 22.636L7.23259 22.2279L6.97544 23.936L6.82647 24.9279L6.71422 24.834C6.48157 24.6462 6.253 24.4564 6.03871 24.2687C1.22238 20.0646 0.630548 15.9013 5.15708 14.2156C5.54289 14.0745 5.93679 13.9566 6.33667 13.8625C7.41963 13.6202 8.52495 13.4916 9.63463 13.4789C10.0203 13.1932 10.5673 12.8074 11.1999 12.4217C8.79381 12.2319 6.59177 12.3279 4.75708 12.7646C4.31027 12.8674 3.87058 12.9989 3.44075 13.1585C-2.0266 15.1993 -0.798025 20.4666 5.84687 25.5381C6.10674 25.734 6.3734 25.9299 6.64687 26.1258L6.50402 27.0768L6.29993 28.3952L7.42034 28.5034L8.17341 28.5748L8.19177 28.5707Z" fill="#04FDF9"/>
<path d="M53.992 33V15.504H66.664V18.84H57.928V23.088H65.704V26.256H57.928V33H53.992ZM72.6897 33.24C70.9777 33.24 69.7297 32.664 68.9457 31.512C68.1617 30.344 67.7697 28.792 67.7697 26.856V26.304C67.7697 24.048 68.2097 22.416 69.0897 21.408C69.9857 20.384 71.1937 19.872 72.7137 19.872C73.5457 19.872 74.2977 20.064 74.9697 20.448C75.6577 20.816 76.1617 21.336 76.4817 22.008H76.6497L76.8417 20.112H80.3217V33H76.6497V31.104H76.4817C76.1617 31.776 75.6577 32.304 74.9697 32.688C74.2977 33.056 73.5377 33.24 72.6897 33.24ZM74.1777 30.24C74.9297 30.24 75.5297 30.016 75.9777 29.568C76.4257 29.104 76.6497 28.456 76.6497 27.624V25.512C76.6497 24.68 76.4257 24.032 75.9777 23.568C75.5297 23.104 74.9297 22.872 74.1777 22.872C73.3937 22.872 72.7857 23.104 72.3537 23.568C71.9217 24.016 71.7057 24.648 71.7057 25.464V27.672C71.7057 28.488 71.9217 29.12 72.3537 29.568C72.7857 30.016 73.3937 30.24 74.1777 30.24ZM88.4314 33.24C86.5914 33.24 85.1834 32.84 84.2074 32.04C83.2474 31.24 82.7754 30.2 82.7914 28.92H86.3194C86.3514 29.56 86.5674 30.016 86.9674 30.288C87.3834 30.56 87.9114 30.696 88.5514 30.696C89.1914 30.696 89.6474 30.576 89.9194 30.336C90.2074 30.096 90.3514 29.792 90.3514 29.424C90.3514 28.864 90.1514 28.496 89.7514 28.32C89.3514 28.128 88.7274 27.968 87.8794 27.84C87.1114 27.728 86.3594 27.552 85.6234 27.312C84.8874 27.056 84.2794 26.672 83.7994 26.16C83.3354 25.648 83.1034 24.936 83.1034 24.024C83.1034 23.128 83.3274 22.376 83.7754 21.768C84.2394 21.144 84.8714 20.672 85.6714 20.352C86.4714 20.032 87.3914 19.872 88.4314 19.872C90.0154 19.872 91.2954 20.224 92.2714 20.928C93.2474 21.632 93.7594 22.624 93.8074 23.904L90.3274 23.88C90.3274 23.384 90.1514 23.008 89.7994 22.752C89.4634 22.48 89.0074 22.344 88.4314 22.344C87.8714 22.344 87.4474 22.456 87.1594 22.68C86.8714 22.904 86.7274 23.2 86.7274 23.568C86.7274 24.08 86.9594 24.416 87.4234 24.576C87.9034 24.736 88.5034 24.872 89.2234 24.984C89.8314 25.064 90.4234 25.176 90.9994 25.32C91.5754 25.448 92.0954 25.656 92.5594 25.944C93.0394 26.232 93.4154 26.632 93.6874 27.144C93.9594 27.64 94.0954 28.296 94.0954 29.112C94.0954 30.392 93.5994 31.4 92.6074 32.136C91.6154 32.872 90.2234 33.24 88.4314 33.24ZM100.989 33C99.9649 33 99.2289 32.736 98.7809 32.208C98.3489 31.68 98.1329 30.992 98.1329 30.144V23.088H95.3489V20.112H98.1329V16.08H101.829V20.112H104.997V23.088H101.829V30.12H104.853V33H100.989ZM107.851 33V15.504H115.987C118.131 15.504 119.731 16.04 120.787 17.112C121.859 18.184 122.395 19.632 122.395 21.456C122.395 23.264 121.851 24.712 120.763 25.8C119.691 26.888 118.035 27.432 115.795 27.432H111.787V33H107.851ZM115.459 18.864H111.787V24.312H115.459C116.355 24.312 117.043 24.104 117.523 23.688C118.019 23.272 118.267 22.696 118.267 21.96V21.216C118.267 20.448 118.011 19.864 117.499 19.464C117.003 19.064 116.323 18.864 115.459 18.864ZM125 33V22.968C125 22.104 125.264 21.416 125.792 20.904C126.32 20.376 127.008 20.112 127.856 20.112H133.112V23.088H128.696V33H125ZM140.665 33.24C138.569 33.24 137.009 32.648 135.985 31.464C134.961 30.264 134.449 28.656 134.449 26.64V26.568C134.449 24.296 135.017 22.616 136.153 21.528C137.289 20.424 138.793 19.872 140.665 19.872C142.553 19.872 144.065 20.424 145.201 21.528C146.353 22.616 146.929 24.296 146.929 26.568V26.64C146.913 28.656 146.393 30.264 145.369 31.464C144.345 32.648 142.777 33.24 140.665 33.24ZM140.665 30.264C141.481 30.264 142.097 30.04 142.513 29.592C142.945 29.144 143.161 28.528 143.161 27.744V25.44C143.161 24.64 142.937 24.016 142.489 23.568C142.057 23.104 141.449 22.872 140.665 22.872C139.897 22.872 139.289 23.104 138.841 23.568C138.409 24.016 138.193 24.64 138.193 25.44V27.744C138.193 28.528 138.401 29.144 138.817 29.592C139.249 30.04 139.865 30.264 140.665 30.264ZM147.395 33L152.099 26.208L147.755 20.112H152.075L154.547 24.072H154.739L157.187 20.112H161.483L157.163 26.184L161.843 33H157.427L154.643 28.68H154.427L151.643 33H147.395ZM162.952 37.008V34.128H167.512V31.608L162.424 20.112H166.264L168.856 27.048L169.24 28.272H169.384L169.768 27.048L172.432 20.112H176.272L171.184 31.608V34.656C171.184 35.456 170.96 36.048 170.512 36.432C170.064 36.816 169.464 37.008 168.712 37.008H162.952ZM176.086 33V29.664H179.59V33H176.086ZM187.604 37.248C185.924 37.248 184.596 36.888 183.62 36.168C182.644 35.464 182.124 34.528 182.06 33.36H185.612C185.676 33.792 185.916 34.12 186.332 34.344C186.748 34.568 187.268 34.68 187.892 34.68C188.852 34.68 189.532 34.464 189.932 34.032C190.348 33.616 190.556 33.008 190.556 32.208V29.976H190.388C190.068 30.696 189.564 31.248 188.876 31.632C188.204 32 187.436 32.184 186.572 32.184C184.924 32.184 183.692 31.64 182.876 30.552C182.076 29.448 181.676 27.968 181.676 26.112V26.016C181.676 23.984 182.108 22.456 182.972 21.432C183.836 20.392 185.044 19.872 186.596 19.872C187.604 19.872 188.412 20.064 189.02 20.448C189.628 20.832 190.084 21.328 190.388 21.936H190.58L190.772 20.112H194.252V31.776C194.252 33.664 193.684 35.048 192.548 35.928C191.412 36.808 189.764 37.248 187.604 37.248ZM188.084 29.256C188.868 29.256 189.476 29.024 189.908 28.56C190.34 28.08 190.556 27.464 190.556 26.712V25.368C190.556 24.568 190.332 23.944 189.884 23.496C189.436 23.032 188.836 22.8 188.084 22.8C187.3 22.8 186.692 23.024 186.26 23.472C185.844 23.92 185.636 24.536 185.636 25.32V26.808C185.636 27.576 185.852 28.176 186.284 28.608C186.732 29.04 187.332 29.256 188.084 29.256ZM202.627 37.248C200.947 37.248 199.619 36.888 198.643 36.168C197.667 35.464 197.147 34.528 197.083 33.36H200.635C200.699 33.792 200.939 34.12 201.355 34.344C201.771 34.568 202.291 34.68 202.915 34.68C203.875 34.68 204.555 34.464 204.955 34.032C205.371 33.616 205.579 33.008 205.579 32.208V29.976H205.411C205.091 30.696 204.587 31.248 203.899 31.632C203.227 32 202.459 32.184 201.595 32.184C199.947 32.184 198.715 31.64 197.899 30.552C197.099 29.448 196.699 27.968 196.699 26.112V26.016C196.699 23.984 197.131 22.456 197.995 21.432C198.859 20.392 200.067 19.872 201.619 19.872C202.627 19.872 203.435 20.064 204.043 20.448C204.651 20.832 205.107 21.328 205.411 21.936H205.603L205.795 20.112H209.275V31.776C209.275 33.664 208.707 35.048 207.571 35.928C206.435 36.808 204.787 37.248 202.627 37.248ZM203.107 29.256C203.891 29.256 204.499 29.024 204.931 28.56C205.363 28.08 205.579 27.464 205.579 26.712V25.368C205.579 24.568 205.355 23.944 204.907 23.496C204.459 23.032 203.859 22.8 203.107 22.8C202.323 22.8 201.715 23.024 201.283 23.472C200.867 23.92 200.659 24.536 200.659 25.32V26.808C200.659 27.576 200.875 28.176 201.307 28.608C201.755 29.04 202.355 29.256 203.107 29.256Z" fill="white"/>
</svg>
