<svg width="185" height="40" viewBox="0 0 185 40" fill="none" xmlns="http://www.w3.org/2000/svg">
<path d="M7.0979 16.6259L7.65096 17.33L7.71218 17.4095L7.79178 17.5095C8.18059 15.4283 9.05923 13.4696 10.355 11.7953C9.93999 12.5671 9.75512 13.4419 9.82239 14.3157C8.97263 15.2835 8.31468 16.4041 7.88362 17.6177L8.1428 17.9504C8.57286 16.8593 9.17203 15.8428 9.91831 14.9381C10.1938 16.1402 10.9734 17.3095 12.2673 18.3157C11.7325 19.3482 11.2952 20.4284 10.9612 21.5422L11.6877 22.4687C12.0004 21.2128 12.4323 19.9896 12.9775 18.8157C14.5271 19.7707 16.2521 20.4063 18.051 20.6851C17.7897 22.4014 17.5959 24.1116 17.4938 25.7157C17.351 25.6932 17.2122 25.6626 17.0734 25.6361L17.4816 25.7953C17.8639 25.9313 18.2469 26.0674 18.6306 26.2034C19.0816 26.3585 19.5326 26.5095 19.9836 26.6483C21.839 26.7404 23.6983 26.5839 25.5122 26.183C25.5489 26.7953 25.5652 27.3728 25.5632 27.9361V27.9728C25.9442 28.034 26.3217 28.0857 26.6959 28.1279C26.6959 27.9728 26.7061 27.8177 26.7061 27.6544C26.7061 27.0912 26.6857 26.5055 26.6408 25.9055C27.783 25.5784 28.884 25.1217 29.9224 24.5442C30.7091 24.1096 31.4403 23.5813 32.0999 22.9708C32.1881 23.5373 32.2325 24.1097 32.2326 24.683C32.2404 25.52 32.1242 26.3535 31.8877 27.1565C31.4197 27.5904 30.9128 27.9805 30.3734 28.3218C30.4857 28.3218 30.602 28.3218 30.7101 28.3218C30.7857 28.3218 30.8571 28.3218 30.9326 28.3095C31.2101 28.1055 31.4734 27.881 31.7142 27.6565C31.6285 27.8714 31.5346 28.0755 31.4326 28.2687H31.4428L31.6632 28.2463C31.9979 28.2116 32.3224 28.1687 32.6326 28.1157C34.5026 25.4428 35.3982 22.2088 35.1694 18.9547C34.9407 15.7006 33.6015 12.6237 31.3759 10.2387C29.1504 7.85375 26.1733 6.30527 22.9428 5.85231C19.7123 5.39936 16.4242 6.0694 13.6285 7.75036L13.8979 7.77077L11.7918 9.07077C9.46186 11.0244 7.81724 13.6716 7.0979 16.6259ZM11.002 11.034C11.3038 10.6976 11.6225 10.3767 11.9571 10.0728C12.8454 9.49735 13.8385 9.10275 14.8795 8.91159C14.3659 9.50444 14.1063 10.2757 14.1571 11.0585C12.705 11.7548 11.3858 12.6997 10.2591 13.8504C10.1891 12.8553 10.4503 11.8651 11.002 11.034ZM12.6081 17.6871C11.3632 16.7197 10.6163 15.5973 10.351 14.4422C11.4646 13.2362 12.77 12.2225 14.2142 11.4422C14.3836 12.1769 14.8612 12.8912 15.6428 13.5075C14.472 14.7779 13.4536 16.1805 12.6081 17.6871ZM18.1652 19.9626C16.4364 19.6956 14.7786 19.0849 13.2897 18.1667C14.0615 16.6181 14.996 15.1561 16.0775 13.8055C17.0261 14.3887 18.0813 14.7772 19.1816 14.9483C18.7959 16.5442 18.4469 18.2504 18.1673 19.9626H18.1652ZM19.7857 15.032C20.9585 15.1645 22.1452 15.1024 23.2979 14.8483C23.8269 16.4776 24.2697 18.1337 24.6244 19.8095C22.8159 20.207 20.9544 20.3049 19.1142 20.0993C19.2918 18.3687 19.5244 16.6483 19.7877 15.032H19.7857ZM18.6489 25.8871C18.7183 24.2789 18.853 22.5585 19.0244 20.83C20.943 21.0449 22.8839 20.9429 24.7693 20.5279C25.0992 22.1785 25.335 23.8465 25.4755 25.5238C23.2359 26.0184 20.9303 26.1412 18.651 25.8871H18.6489ZM23.8755 14.7075C24.4566 14.5389 25.0172 14.3062 25.5469 14.0136C25.9477 13.7916 26.3204 13.5223 26.6571 13.2116C27.9007 14.4096 28.9882 15.7597 29.8938 17.23C29.3658 17.7184 28.7806 18.1412 28.151 18.4891C27.3197 18.951 26.4385 19.3166 25.5244 19.5789C25.0809 17.9211 24.5301 16.2939 23.8755 14.7075ZM30.9448 11.0993C31.2666 11.6025 31.4903 12.162 31.604 12.7483C30.4844 11.7104 29.1747 10.8989 27.7469 10.3585C27.6061 9.62179 27.1591 8.90138 26.3999 8.27689C26.9843 8.33229 27.558 8.46969 28.104 8.68506C29.1574 9.35304 30.1134 10.1634 30.9448 11.0932V11.0993ZM31.6754 13.3442C31.7265 14.5014 31.2979 15.6626 30.402 16.7014C29.4384 15.2766 28.2872 13.9882 26.9795 12.8708C27.518 12.2902 27.8106 11.5237 27.7959 10.732C29.238 11.3563 30.553 12.2404 31.6754 13.3402V13.3442ZM29.8387 23.8993C28.8104 24.4703 27.7204 24.9222 26.5897 25.2463C26.4161 23.5754 26.1215 21.9194 25.7081 20.2912C26.6598 20.0181 27.5773 19.6374 28.4428 19.1565C29.098 18.7942 29.7072 18.3543 30.2571 17.8463C31.0613 19.2457 31.647 20.7597 31.9938 22.3361C31.3403 22.9388 30.6167 23.461 29.8387 23.8912V23.8993ZM30.7857 17.2973C31.7183 16.2157 32.1632 15.0075 32.1101 13.8034C32.8922 14.6656 33.5099 15.6637 33.9326 16.7483C34.0412 17.1823 34.127 17.6217 34.1897 18.0646C34.1163 19.3177 33.5897 20.5585 32.6183 21.683C32.2547 20.1284 31.6354 18.6449 30.7857 17.2932V17.2973ZM32.8591 26.0606C32.7489 26.2095 32.6346 26.3585 32.5081 26.5055C32.7605 25.7019 32.8865 24.864 32.8816 24.0218C32.8829 23.4508 32.8358 22.8807 32.7408 22.3177C33.5743 21.3958 34.1136 20.246 34.2897 19.0157C34.3122 19.334 34.3285 19.6544 34.3285 19.9789C34.3282 22.0927 33.8245 24.176 32.8591 26.0565V26.0606ZM33.3591 14.9871C32.9938 14.3332 32.5497 13.7267 32.0367 13.181C31.9463 12.7184 31.7889 12.2715 31.5693 11.8544C32.3038 12.8121 32.9058 13.8645 33.3591 14.983V14.9871ZM21.4571 9.1422L21.4918 9.16873C23.0693 8.4973 24.553 8.19934 25.8836 8.24016C26.5714 8.80546 26.9775 9.46465 27.1081 10.1238C25.341 9.54829 23.4854 9.29258 21.6285 9.36873C21.6297 9.38026 21.6297 9.39188 21.6285 9.40342C23.5131 9.43702 25.3775 9.79748 27.1387 10.4687C27.1559 11.1838 26.8929 11.8773 26.4061 12.4014C24.9399 11.226 23.3017 10.283 21.5489 9.60546L21.5183 9.63607C23.195 10.4227 24.7453 11.4544 26.1183 12.6973C25.8127 12.9783 25.475 13.2221 25.1122 13.4238C24.6337 13.6898 24.1263 13.9 23.5999 14.0504C22.96 12.5483 22.1739 11.1128 21.253 9.76465L21.1979 9.77893C21.9447 11.1901 22.574 12.6604 23.0795 14.1748C22.0358 14.4031 20.9619 14.4596 19.8999 14.3422C20.1918 12.6442 20.5122 11.0871 20.8612 9.7973H20.804C20.2276 11.2567 19.7456 12.7516 19.3612 14.2728C18.3653 14.1182 17.41 13.7672 16.551 13.2402C17.6995 11.8794 19.0305 10.6838 20.5061 9.68709L20.4897 9.67689L20.4652 9.65852C18.8783 10.5468 17.4279 11.6596 16.1591 12.9626C15.5225 12.5087 15.063 11.848 14.8591 11.0932C16.5792 10.2496 18.4275 9.69786 20.3285 9.46056V9.42587C18.4301 9.55119 16.5668 9.99838 14.8183 10.7483C14.7716 10.0396 15.0071 9.34119 15.4734 8.80546C17.1277 8.61027 18.8043 8.74907 20.404 9.21363C20.4142 9.21363 20.4224 9.19118 20.4346 9.18097C18.9379 8.62985 17.3431 8.39498 15.751 8.49118C16.0761 8.1716 16.4427 7.89704 16.8408 7.67485C17.2761 7.43211 17.7358 7.23579 18.2122 7.08914C18.9632 7.35444 19.804 7.99118 20.6938 9.02587L20.7469 9.00954C20.0244 7.93199 19.3387 7.25036 18.7265 6.94832C19.7622 6.70933 20.8301 6.64177 21.8877 6.74832C21.6408 7.10954 21.3652 7.85648 21.0714 9.00546H21.1285C21.5959 7.87893 22.0387 7.1524 22.4326 6.8075C23.5175 6.95564 24.5571 7.33795 25.4795 7.92791C25.6408 7.92791 25.7999 7.92791 25.953 7.92791C24.9332 7.27708 23.7843 6.85514 22.5857 6.69118C22.5857 6.69118 22.5857 6.69118 22.5979 6.69118C24.2579 6.89498 25.8643 7.41085 27.3326 8.21158C25.7183 7.72995 23.6836 7.9973 21.4571 9.13812V9.1422ZM19.9734 6.63607C19.4688 6.67714 18.9681 6.75628 18.4755 6.87281C18.4428 6.86056 18.4101 6.85444 18.3755 6.84424C18.9035 6.74213 19.437 6.67125 19.9734 6.63199V6.63607ZM17.6979 6.99526C17.7673 7.00546 17.8367 7.01363 17.902 7.02995C17.3763 7.19279 16.8688 7.40959 16.3877 7.67689C15.9474 7.91949 15.5418 8.22014 15.1816 8.57077C14.3889 8.68081 13.62 8.92149 12.9061 9.28301C14.3337 8.20579 15.9632 7.42641 17.6979 6.99118V6.99526Z" fill="white"/>
<path d="M25.4225 32.5829C25.8144 32.2135 26.1307 31.6258 26.3511 30.8258C26.0266 30.7789 25.6939 30.7217 25.3654 30.6666C25.0368 30.6115 24.7531 30.5605 24.4552 30.5013C22.5388 30.8247 20.5868 30.8803 18.6552 30.6666C18.6225 30.1646 18.6021 29.5993 18.594 28.9666C18.2001 28.836 17.8042 28.6993 17.4103 28.5584C17.4103 29.287 17.4491 29.9401 17.5062 30.5054C15.3021 30.1299 13.2205 29.3931 11.5286 28.3033C11.3277 27.5167 11.231 26.707 11.2409 25.8952L10.8327 25.6911L10.3837 25.6482C10.4004 26.3493 10.5032 27.0457 10.6899 27.7217C10.054 27.235 9.48697 26.6646 9.00415 26.0258C8.91436 25.8503 8.82865 25.6707 8.74701 25.4911L8.64293 25.4809L8.54293 25.4707L7.76538 25.3972C8.60158 27.4375 9.90052 29.2556 11.5597 30.7078C13.2189 32.1601 15.1929 33.2069 17.326 33.7656C19.459 34.3243 21.6927 34.3796 23.8508 33.9272C26.0089 33.4747 28.0323 32.5269 29.7613 31.1584C29.3232 31.138 28.8783 31.1088 28.4266 31.0707C27.4935 31.7002 26.484 32.2083 25.4225 32.5829ZM25.3511 30.7584C25.1633 31.7788 24.8674 32.4768 24.4858 32.8686C22.7223 33.2574 20.9068 33.3526 19.1123 33.1503C18.9225 32.7891 18.7776 32.1033 18.6899 31.1095C20.9145 31.3574 23.1648 31.2388 25.3511 30.7584ZM17.5593 30.9482C17.6939 31.9503 17.9144 32.6482 18.2001 33.0237C17.8246 32.9605 17.4531 32.8788 17.0858 32.7891C15.4168 32.2838 13.8625 31.4574 12.5103 30.3564C12.1487 29.8798 11.8668 29.3477 11.6756 28.7809C13.347 29.8544 15.3878 30.5809 17.5593 30.9482ZM9.51232 26.9278C9.91507 27.3959 10.3643 27.8219 10.8531 28.1993C11.0125 28.6309 11.2228 29.042 11.4797 29.4237C10.7273 28.6727 10.0669 27.8348 9.51232 26.9278Z" fill="white"/>
<path d="M38.5265 21.632L38.9979 20.7912L39.6244 19.6667L35.3387 16.9299C35.8195 18.029 36.1761 19.1783 36.402 20.3565C36.6751 21.7128 36.8497 23.0871 36.9244 24.4687L37.7203 23.0401C38.3877 25.4769 37.353 27.4422 34.7326 28.4177C34.3471 28.5604 33.9532 28.679 33.553 28.7728C33.004 28.9034 32.4326 29.0095 31.851 29.0932C31.5142 29.1442 31.1734 29.185 30.8305 29.2218H30.7775L30.553 29.2442C30.1326 29.281 29.702 29.3014 29.2652 29.3136C28.9795 29.3238 28.6897 29.3279 28.3979 29.3259C27.8183 29.3259 27.2244 29.2952 26.6224 29.2483C26.2612 29.2197 25.8959 29.183 25.5265 29.1401C23.156 28.8427 20.8277 28.273 18.5877 27.4422C18.202 27.2993 17.8101 27.1483 17.4183 26.9891C16.751 26.7197 16.0795 26.4299 15.3999 26.1095L13.8367 26.181C14.9938 26.7565 16.1897 27.2708 17.3999 27.732C17.7938 27.881 18.1856 28.0238 18.5816 28.1605C20.8208 28.9478 23.1239 29.5399 25.4652 29.9299C25.8183 29.985 26.1693 30.0422 26.5142 30.0871C26.7959 30.1238 27.0714 30.1503 27.3469 30.181C28.0448 30.2565 28.7285 30.3116 29.3877 30.3401C29.8203 30.3565 30.2462 30.3639 30.6652 30.3626C32.1681 30.3737 33.6674 30.2148 35.1346 29.8891C35.5792 29.7848 36.0168 29.6525 36.4448 29.4932C40.2877 28.0667 40.8326 25.0524 38.5265 21.632Z" fill="#04FDF9"/>
<path d="M8.19177 24.5707L8.38157 24.587L8.98157 24.6462L10.3979 24.783L11.0959 24.8503L11.2877 24.8687L12.553 24.9891L12.3346 24.7074L11.9693 24.2421L11.453 23.585L10.6877 22.6095L10.5673 22.4625L7.85912 19.0115L7.81626 18.9544L7.61218 18.7054L7.58565 18.6687L7.55912 18.636L7.23259 18.2279L6.97544 19.936L6.82647 20.9279L6.71422 20.834C6.48157 20.6462 6.253 20.4564 6.03871 20.2687C1.22238 16.0646 0.630548 11.9013 5.15708 10.2156C5.54289 10.0745 5.93679 9.95663 6.33667 9.86255C7.41963 9.62018 8.52495 9.49159 9.63463 9.47888C10.0203 9.19316 10.5673 8.80745 11.1999 8.42173C8.79381 8.23194 6.59177 8.32786 4.75708 8.76459C4.31027 8.86737 3.87058 8.99894 3.44075 9.15847C-2.0266 11.1993 -0.798025 16.4666 5.84687 21.5381C6.10674 21.734 6.3734 21.9299 6.64687 22.1258L6.50402 23.0768L6.29993 24.3952L7.42034 24.5034L8.17341 24.5748L8.19177 24.5707Z" fill="#04FDF9"/>
<path d="M53.66 27V12.42H64.22V15.2H56.94V18.74H63.42V21.38H56.94V27H53.66ZM69.2414 27.2C67.8147 27.2 66.7747 26.72 66.1214 25.76C65.4681 24.7867 65.1414 23.4933 65.1414 21.88V21.42C65.1414 19.54 65.5081 18.18 66.2414 17.34C66.9881 16.4867 67.9947 16.06 69.2614 16.06C69.9547 16.06 70.5814 16.22 71.1414 16.54C71.7147 16.8467 72.1347 17.28 72.4014 17.84H72.5414L72.7014 16.26H75.6014V27H72.5414V25.42H72.4014C72.1347 25.98 71.7147 26.42 71.1414 26.74C70.5814 27.0467 69.9481 27.2 69.2414 27.2ZM70.4814 24.7C71.1081 24.7 71.6081 24.5133 71.9814 24.14C72.3547 23.7533 72.5414 23.2133 72.5414 22.52V20.76C72.5414 20.0667 72.3547 19.5267 71.9814 19.14C71.6081 18.7533 71.1081 18.56 70.4814 18.56C69.8281 18.56 69.3214 18.7533 68.9614 19.14C68.6014 19.5133 68.4214 20.04 68.4214 20.72V22.56C68.4214 23.24 68.6014 23.7667 68.9614 24.14C69.3214 24.5133 69.8281 24.7 70.4814 24.7ZM82.3595 27.2C80.8262 27.2 79.6529 26.8667 78.8395 26.2C78.0395 25.5333 77.6462 24.6667 77.6595 23.6H80.5995C80.6262 24.1333 80.8062 24.5133 81.1395 24.74C81.4862 24.9667 81.9262 25.08 82.4595 25.08C82.9929 25.08 83.3729 24.98 83.5995 24.78C83.8395 24.58 83.9595 24.3267 83.9595 24.02C83.9595 23.5533 83.7929 23.2467 83.4595 23.1C83.1262 22.94 82.6062 22.8067 81.8995 22.7C81.2595 22.6067 80.6329 22.46 80.0195 22.26C79.4062 22.0467 78.8995 21.7267 78.4995 21.3C78.1129 20.8733 77.9195 20.28 77.9195 19.52C77.9195 18.7733 78.1062 18.1467 78.4795 17.64C78.8662 17.12 79.3929 16.7267 80.0595 16.46C80.7262 16.1933 81.4929 16.06 82.3595 16.06C83.6795 16.06 84.7462 16.3533 85.5595 16.94C86.3729 17.5267 86.7995 18.3533 86.8395 19.42L83.9395 19.4C83.9395 18.9867 83.7929 18.6733 83.4995 18.46C83.2195 18.2333 82.8395 18.12 82.3595 18.12C81.8929 18.12 81.5395 18.2133 81.2995 18.4C81.0595 18.5867 80.9395 18.8333 80.9395 19.14C80.9395 19.5667 81.1329 19.8467 81.5195 19.98C81.9195 20.1133 82.4195 20.2267 83.0195 20.32C83.5262 20.3867 84.0195 20.48 84.4995 20.6C84.9795 20.7067 85.4129 20.88 85.7995 21.12C86.1995 21.36 86.5129 21.6933 86.7395 22.12C86.9662 22.5333 87.0795 23.08 87.0795 23.76C87.0795 24.8267 86.6662 25.6667 85.8395 26.28C85.0129 26.8933 83.8529 27.2 82.3595 27.2ZM92.8241 27C91.9707 27 91.3574 26.78 90.9841 26.34C90.6241 25.9 90.4441 25.3267 90.4441 24.62V18.74H88.1241V16.26H90.4441V12.9H93.5241V16.26H96.1641V18.74H93.5241V24.6H96.0441V27H92.8241ZM98.5428 27V12.42H105.323C107.109 12.42 108.443 12.8667 109.323 13.76C110.216 14.6533 110.663 15.86 110.663 17.38C110.663 18.8867 110.209 20.0933 109.303 21C108.409 21.9067 107.029 22.36 105.163 22.36H101.823V27H98.5428ZM104.883 15.22H101.823V19.76H104.883C105.629 19.76 106.203 19.5867 106.603 19.24C107.016 18.8933 107.223 18.4133 107.223 17.8V17.18C107.223 16.54 107.009 16.0533 106.583 15.72C106.169 15.3867 105.603 15.22 104.883 15.22ZM112.834 27V18.64C112.834 17.92 113.054 17.3467 113.494 16.92C113.934 16.48 114.507 16.26 115.214 16.26H119.594V18.74H115.914V27H112.834ZM125.888 27.2C124.141 27.2 122.841 26.7067 121.988 25.72C121.134 24.72 120.708 23.38 120.708 21.7V21.64C120.708 19.7467 121.181 18.3467 122.128 17.44C123.074 16.52 124.328 16.06 125.888 16.06C127.461 16.06 128.721 16.52 129.668 17.44C130.628 18.3467 131.108 19.7467 131.108 21.64V21.7C131.094 23.38 130.661 24.72 129.808 25.72C128.954 26.7067 127.648 27.2 125.888 27.2ZM125.888 24.72C126.568 24.72 127.081 24.5333 127.428 24.16C127.788 23.7867 127.968 23.2733 127.968 22.62V20.7C127.968 20.0333 127.781 19.5133 127.408 19.14C127.048 18.7533 126.541 18.56 125.888 18.56C125.248 18.56 124.741 18.7533 124.368 19.14C124.008 19.5133 123.828 20.0333 123.828 20.7V22.62C123.828 23.2733 124.001 23.7867 124.348 24.16C124.708 24.5333 125.221 24.72 125.888 24.72ZM131.495 27L135.415 21.34L131.795 16.26H135.395L137.455 19.56H137.615L139.655 16.26H143.235L139.635 21.32L143.535 27H139.855L137.535 23.4H137.355L135.035 27H131.495ZM144.46 30.34V27.94H148.26V25.84L144.02 16.26H147.22L149.38 22.04L149.7 23.06H149.82L150.14 22.04L152.36 16.26H155.56L151.32 25.84V28.38C151.32 29.0467 151.133 29.54 150.76 29.86C150.386 30.18 149.886 30.34 149.26 30.34H144.46ZM155.405 27V24.22H158.325V27H155.405ZM165.003 30.54C163.603 30.54 162.497 30.24 161.683 29.64C160.87 29.0533 160.437 28.2733 160.383 27.3H163.343C163.397 27.66 163.597 27.9333 163.943 28.12C164.29 28.3067 164.723 28.4 165.243 28.4C166.043 28.4 166.61 28.22 166.943 27.86C167.29 27.5133 167.463 27.0067 167.463 26.34V24.48H167.323C167.057 25.08 166.637 25.54 166.063 25.86C165.503 26.1667 164.863 26.32 164.143 26.32C162.77 26.32 161.743 25.8667 161.063 24.96C160.397 24.04 160.063 22.8067 160.063 21.26V21.18C160.063 19.4867 160.423 18.2133 161.143 17.36C161.863 16.4933 162.87 16.06 164.163 16.06C165.003 16.06 165.677 16.22 166.183 16.54C166.69 16.86 167.07 17.2733 167.323 17.78H167.483L167.643 16.26H170.543V25.98C170.543 27.5533 170.07 28.7067 169.123 29.44C168.177 30.1733 166.803 30.54 165.003 30.54ZM165.403 23.88C166.057 23.88 166.563 23.6867 166.923 23.3C167.283 22.9 167.463 22.3867 167.463 21.76V20.64C167.463 19.9733 167.277 19.4533 166.903 19.08C166.53 18.6933 166.03 18.5 165.403 18.5C164.75 18.5 164.243 18.6867 163.883 19.06C163.537 19.4333 163.363 19.9467 163.363 20.6V21.84C163.363 22.48 163.543 22.98 163.903 23.34C164.277 23.7 164.777 23.88 165.403 23.88ZM177.523 30.54C176.123 30.54 175.016 30.24 174.203 29.64C173.389 29.0533 172.956 28.2733 172.903 27.3H175.863C175.916 27.66 176.116 27.9333 176.463 28.12C176.809 28.3067 177.243 28.4 177.763 28.4C178.563 28.4 179.129 28.22 179.463 27.86C179.809 27.5133 179.983 27.0067 179.983 26.34V24.48H179.843C179.576 25.08 179.156 25.54 178.583 25.86C178.023 26.1667 177.383 26.32 176.663 26.32C175.289 26.32 174.263 25.8667 173.583 24.96C172.916 24.04 172.583 22.8067 172.583 21.26V21.18C172.583 19.4867 172.943 18.2133 173.663 17.36C174.383 16.4933 175.389 16.06 176.683 16.06C177.523 16.06 178.196 16.22 178.703 16.54C179.209 16.86 179.589 17.2733 179.843 17.78H180.003L180.163 16.26H183.063V25.98C183.063 27.5533 182.589 28.7067 181.643 29.44C180.696 30.1733 179.323 30.54 177.523 30.54ZM177.923 23.88C178.576 23.88 179.083 23.6867 179.443 23.3C179.803 22.9 179.983 22.3867 179.983 21.76V20.64C179.983 19.9733 179.796 19.4533 179.423 19.08C179.049 18.6933 178.549 18.5 177.923 18.5C177.269 18.5 176.763 18.6867 176.403 19.06C176.056 19.4333 175.883 19.9467 175.883 20.6V21.84C175.883 22.48 176.063 22.98 176.423 23.34C176.796 23.7 177.296 23.88 177.923 23.88Z" fill="white"/>
</svg>
