<svg width="40" height="40" viewBox="0 0 40 40" fill="none" xmlns="http://www.w3.org/2000/svg">
<path d="M7.09814 16.6259L7.65121 17.33L7.71243 17.4095L7.79202 17.5095C8.18083 15.4283 9.05947 13.4696 10.3553 11.7953C9.94023 12.5671 9.75537 13.4419 9.82264 14.3157C8.97287 15.2835 8.31492 16.4041 7.88386 17.6177L8.14304 17.9504C8.5731 16.8593 9.17228 15.8428 9.91855 14.9381C10.1941 16.1402 10.9737 17.3095 12.2675 18.3157C11.7327 19.3482 11.2955 20.4284 10.9614 21.5422L11.6879 22.4687C12.0007 21.2128 12.4326 19.9896 12.9777 18.8157C14.5274 19.7707 16.2524 20.4063 18.0512 20.6851C17.79 22.4014 17.5961 24.1116 17.4941 25.7157C17.3512 25.6932 17.2124 25.6626 17.0737 25.6361L17.4818 25.7953C17.8641 25.9313 18.2471 26.0674 18.6308 26.2034C19.0818 26.3585 19.5328 26.5095 19.9839 26.6483C21.8392 26.7404 23.6986 26.5839 25.5124 26.183C25.5492 26.7953 25.5655 27.3728 25.5634 27.9361V27.9728C25.9444 28.034 26.322 28.0857 26.6961 28.1279C26.6961 27.9728 26.7063 27.8177 26.7063 27.6544C26.7063 27.0912 26.6859 26.5055 26.641 25.9055C27.7832 25.5784 28.8843 25.1217 29.9226 24.5442C30.7094 24.1096 31.4406 23.5813 32.1002 22.9708C32.1883 23.5373 32.2327 24.1097 32.2328 24.683C32.2406 25.52 32.1244 26.3535 31.8879 27.1565C31.4199 27.5904 30.913 27.9805 30.3737 28.3218C30.4859 28.3218 30.6022 28.3218 30.7104 28.3218C30.7859 28.3218 30.8573 28.3218 30.9328 28.3095C31.2104 28.1055 31.4737 27.881 31.7145 27.6565C31.6288 27.8714 31.5349 28.0755 31.4328 28.2687H31.443L31.6634 28.2463C31.9981 28.2116 32.3226 28.1687 32.6328 28.1157C34.5029 25.4428 35.3984 22.2088 35.1697 18.9547C34.9409 15.7006 33.6018 12.6237 31.3762 10.2387C29.1506 7.85375 26.1736 6.30527 22.943 5.85231C19.7125 5.39936 16.4244 6.0694 13.6288 7.75036L13.8981 7.77077L11.792 9.07077C9.4621 11.0244 7.81748 13.6716 7.09814 16.6259ZM11.0022 11.034C11.304 10.6976 11.6228 10.3767 11.9573 10.0728C12.8457 9.49735 13.8388 9.10275 14.8798 8.91159C14.3661 9.50444 14.1066 10.2757 14.1573 11.0585C12.7052 11.7548 11.386 12.6997 10.2594 13.8504C10.1893 12.8553 10.4505 11.8651 11.0022 11.034ZM12.6083 17.6871C11.3635 16.7197 10.6165 15.5973 10.3512 14.4422C11.4649 13.2362 12.7702 12.2225 14.2145 11.4422C14.3839 12.1769 14.8614 12.8912 15.643 13.5075C14.4723 14.7779 13.4538 16.1805 12.6083 17.6871ZM18.1655 19.9626C16.4367 19.6956 14.7789 19.0849 13.29 18.1667C14.0617 16.6181 14.9962 15.1561 16.0777 13.8055C17.0263 14.3887 18.0815 14.7772 19.1818 14.9483C18.7961 16.5442 18.4471 18.2504 18.1675 19.9626H18.1655ZM19.7859 15.032C20.9588 15.1645 22.1455 15.1024 23.2981 14.8483C23.8271 16.4776 24.2699 18.1337 24.6247 19.8095C22.8162 20.207 20.9547 20.3049 19.1145 20.0993C19.292 18.3687 19.5247 16.6483 19.7879 15.032H19.7859ZM18.6492 25.8871C18.7186 24.2789 18.8532 22.5585 19.0247 20.83C20.9432 21.0449 22.8841 20.9429 24.7696 20.5279C25.0994 22.1785 25.3352 23.8465 25.4757 25.5238C23.2362 26.0184 20.9306 26.1412 18.6512 25.8871H18.6492ZM23.8757 14.7075C24.4568 14.5389 25.0174 14.3062 25.5471 14.0136C25.9479 13.7916 26.3206 13.5223 26.6573 13.2116C27.9009 14.4096 28.9884 15.7597 29.8941 17.23C29.366 17.7184 28.7808 18.1412 28.1512 18.4891C27.3199 18.951 26.4387 19.3166 25.5247 19.5789C25.0812 17.9211 24.5304 16.2939 23.8757 14.7075ZM30.9451 11.0993C31.2669 11.6025 31.4906 12.162 31.6043 12.7483C30.4847 11.7104 29.1749 10.8989 27.7471 10.3585C27.6063 9.62179 27.1594 8.90138 26.4002 8.27689C26.9846 8.33229 27.5582 8.46969 28.1043 8.68506C29.1576 9.35304 30.1136 10.1634 30.9451 11.0932V11.0993ZM31.6757 13.3442C31.7267 14.5014 31.2981 15.6626 30.4022 16.7014C29.4386 15.2766 28.2874 13.9882 26.9798 12.8708C27.5183 12.2902 27.8108 11.5237 27.7961 10.732C29.2382 11.3563 30.5532 12.2404 31.6757 13.3402V13.3442ZM29.839 23.8993C28.8107 24.4703 27.7206 24.9222 26.59 25.2463C26.4164 23.5754 26.1217 21.9194 25.7083 20.2912C26.6601 20.0181 27.5776 19.6374 28.443 19.1565C29.0982 18.7942 29.7074 18.3543 30.2573 17.8463C31.0616 19.2457 31.6472 20.7597 31.9941 22.3361C31.3405 22.9388 30.617 23.461 29.839 23.8912V23.8993ZM30.7859 17.2973C31.7186 16.2157 32.1634 15.0075 32.1104 13.8034C32.8925 14.6656 33.5101 15.6637 33.9328 16.7483C34.0415 17.1823 34.1273 17.6217 34.19 18.0646C34.1165 19.3177 33.59 20.5585 32.6185 21.683C32.255 20.1284 31.6357 18.6449 30.7859 17.2932V17.2973ZM32.8594 26.0606C32.7492 26.2095 32.6349 26.3585 32.5084 26.5055C32.7608 25.7019 32.8868 24.864 32.8818 24.0218C32.8832 23.4508 32.8361 22.8807 32.741 22.3177C33.5745 21.3958 34.1139 20.246 34.29 19.0157C34.3124 19.334 34.3288 19.6544 34.3288 19.9789C34.3284 22.0927 33.8247 24.176 32.8594 26.0565V26.0606ZM33.3594 14.9871C32.9941 14.3332 32.55 13.7267 32.0369 13.181C31.9465 12.7184 31.7891 12.2715 31.5696 11.8544C32.304 12.8121 32.906 13.8645 33.3594 14.983V14.9871ZM21.4573 9.1422L21.492 9.16873C23.0696 8.4973 24.5532 8.19934 25.8839 8.24016C26.5716 8.80546 26.9777 9.46465 27.1083 10.1238C25.3412 9.54829 23.4857 9.29258 21.6288 9.36873C21.6299 9.38026 21.6299 9.39188 21.6288 9.40342C23.5133 9.43702 25.3777 9.79748 27.139 10.4687C27.1561 11.1838 26.8932 11.8773 26.4063 12.4014C24.9401 11.226 23.3019 10.283 21.5492 9.60546L21.5186 9.63607C23.1952 10.4227 24.7455 11.4544 26.1186 12.6973C25.813 12.9783 25.4753 13.2221 25.1124 13.4238C24.6339 13.6898 24.1266 13.9 23.6002 14.0504C22.9603 12.5483 22.1742 11.1128 21.2532 9.76465L21.1981 9.77893C21.9449 11.1901 22.5742 12.6604 23.0798 14.1748C22.0361 14.4031 20.9621 14.4596 19.9002 14.3422C20.192 12.6442 20.5124 11.0871 20.8614 9.7973H20.8043C20.2278 11.2567 19.7459 12.7516 19.3614 14.2728C18.3655 14.1182 17.4103 13.7672 16.5512 13.2402C17.6998 11.8794 19.0307 10.6838 20.5063 9.68709L20.49 9.67689L20.4655 9.65852C18.8785 10.5468 17.4281 11.6596 16.1594 12.9626C15.5227 12.5087 15.0633 11.848 14.8594 11.0932C16.5794 10.2496 18.4277 9.69786 20.3288 9.46056V9.42587C18.4303 9.55119 16.5671 9.99838 14.8186 10.7483C14.7718 10.0396 15.0073 9.34119 15.4737 8.80546C17.1279 8.61027 18.8046 8.74907 20.4043 9.21363C20.4145 9.21363 20.4226 9.19118 20.4349 9.18097C18.9381 8.62985 17.3433 8.39498 15.7512 8.49118C16.0764 8.1716 16.4429 7.89704 16.841 7.67485C17.2764 7.43211 17.736 7.23579 18.2124 7.08914C18.9635 7.35444 19.8043 7.99118 20.6941 9.02587L20.7471 9.00954C20.0247 7.93199 19.339 7.25036 18.7267 6.94832C19.7624 6.70933 20.8303 6.64177 21.8879 6.74832C21.641 7.10954 21.3655 7.85648 21.0716 9.00546H21.1288C21.5961 7.87893 22.039 7.1524 22.4328 6.8075C23.5177 6.95564 24.5574 7.33795 25.4798 7.92791C25.641 7.92791 25.8002 7.92791 25.9532 7.92791C24.9334 7.27708 23.7846 6.85514 22.5859 6.69118C22.5859 6.69118 22.5859 6.69118 22.5981 6.69118C24.2581 6.89498 25.8646 7.41085 27.3328 8.21158C25.7186 7.72995 23.6839 7.9973 21.4573 9.13812V9.1422ZM19.9737 6.63607C19.4691 6.67714 18.9683 6.75628 18.4757 6.87281C18.443 6.86056 18.4104 6.85444 18.3757 6.84424C18.9037 6.74213 19.4373 6.67125 19.9737 6.63199V6.63607ZM17.6981 6.99526C17.7675 7.00546 17.8369 7.01363 17.9022 7.02995C17.3765 7.19279 16.869 7.40959 16.3879 7.67689C15.9477 7.91949 15.542 8.22014 15.1818 8.57077C14.3892 8.68081 13.6202 8.92149 12.9063 9.28301C14.3339 8.20579 15.9635 7.42641 17.6981 6.99118V6.99526Z" fill="white"/>
<path d="M25.4223 32.5829C25.8141 32.2135 26.1304 31.6258 26.3508 30.8258C26.0264 30.7789 25.6937 30.7217 25.3651 30.6666C25.0366 30.6115 24.7529 30.5605 24.4549 30.5013C22.5386 30.8247 20.5866 30.8803 18.6549 30.6666C18.6223 30.1646 18.6019 29.5993 18.5937 28.9666C18.1998 28.836 17.8039 28.6993 17.41 28.5584C17.41 29.287 17.4488 29.9401 17.506 30.5054C15.3019 30.1299 13.2202 29.3931 11.5284 28.3033C11.3275 27.5167 11.2308 26.707 11.2406 25.8952L10.8325 25.6911L10.3835 25.6482C10.4002 26.3493 10.503 27.0457 10.6896 27.7217C10.0538 27.235 9.48672 26.6646 9.00391 26.0258C8.91411 25.8503 8.8284 25.6707 8.74677 25.4911L8.64269 25.4809L8.54269 25.4707L7.76514 25.3972C8.60133 27.4375 9.90028 29.2556 11.5595 30.7078C13.2187 32.1601 15.1927 33.2069 17.3257 33.7656C19.4588 34.3243 21.6925 34.3796 23.8506 33.9272C26.0086 33.4747 28.032 32.5269 29.7611 31.1584C29.323 31.138 28.8781 31.1088 28.4264 31.0707C27.4932 31.7002 26.4837 32.2083 25.4223 32.5829ZM25.3508 30.7584C25.1631 31.7788 24.8672 32.4768 24.4855 32.8686C22.7221 33.2574 20.9065 33.3526 19.1121 33.1503C18.9223 32.7891 18.7774 32.1033 18.6896 31.1095C20.9143 31.3574 23.1646 31.2388 25.3508 30.7584ZM17.559 30.9482C17.6937 31.9503 17.9141 32.6482 18.1998 33.0237C17.8243 32.9605 17.4529 32.8788 17.0855 32.7891C15.4165 32.2838 13.8623 31.4574 12.51 30.3564C12.1485 29.8798 11.8666 29.3477 11.6753 28.7809C13.3468 29.8544 15.3876 30.5809 17.559 30.9482ZM9.51207 26.9278C9.91483 27.3959 10.3641 27.8219 10.8529 28.1993C11.0122 28.6309 11.2225 29.042 11.4794 29.4237C10.7271 28.6727 10.0667 27.8348 9.51207 26.9278Z" fill="white"/>
<path d="M38.5267 21.632L38.9981 20.7912L39.6247 19.6667L35.339 16.9299C35.8198 18.029 36.1764 19.1783 36.4022 20.3565C36.6754 21.7128 36.85 23.0871 36.9247 24.4687L37.7206 23.0401C38.3879 25.4769 37.3532 27.4422 34.7328 28.4177C34.3474 28.5604 33.9534 28.679 33.5532 28.7728C33.0043 28.9034 32.4328 29.0095 31.8512 29.0932C31.5145 29.1442 31.1736 29.185 30.8308 29.2218H30.7777L30.5532 29.2442C30.1328 29.281 29.7022 29.3014 29.2655 29.3136C28.9798 29.3238 28.69 29.3279 28.3981 29.3259C27.8185 29.3259 27.2247 29.2952 26.6226 29.2483C26.2614 29.2197 25.8961 29.183 25.5267 29.1401C23.1562 28.8427 20.8279 28.273 18.5879 27.4422C18.2022 27.2993 17.8104 27.1483 17.4185 26.9891C16.7512 26.7197 16.0798 26.4299 15.4002 26.1095L13.8369 26.181C14.9941 26.7565 16.19 27.2708 17.4002 27.732C17.7941 27.881 18.1859 28.0238 18.5818 28.1605C20.821 28.9478 23.1242 29.5399 25.4655 29.9299C25.8185 29.985 26.1696 30.0422 26.5145 30.0871C26.7961 30.1238 27.0716 30.1503 27.3471 30.181C28.0451 30.2565 28.7287 30.3116 29.3879 30.3401C29.8206 30.3565 30.2464 30.3639 30.6655 30.3626C32.1684 30.3737 33.6677 30.2148 35.1349 29.8891C35.5795 29.7848 36.0171 29.6525 36.4451 29.4932C40.2879 28.0667 40.8328 25.0524 38.5267 21.632Z" fill="#04FDF9"/>
<path d="M8.19177 24.5707L8.38157 24.587L8.98157 24.6462L10.3979 24.783L11.0959 24.8503L11.2877 24.8687L12.553 24.9891L12.3346 24.7074L11.9693 24.2421L11.453 23.585L10.6877 22.6095L10.5673 22.4625L7.85912 19.0115L7.81626 18.9544L7.61218 18.7054L7.58565 18.6687L7.55912 18.636L7.23259 18.2279L6.97544 19.936L6.82647 20.9279L6.71422 20.834C6.48157 20.6462 6.253 20.4564 6.03871 20.2687C1.22238 16.0646 0.630548 11.9013 5.15708 10.2156C5.54289 10.0745 5.93679 9.95663 6.33667 9.86255C7.41963 9.62018 8.52495 9.49159 9.63463 9.47888C10.0203 9.19316 10.5673 8.80745 11.1999 8.42173C8.79381 8.23194 6.59177 8.32786 4.75708 8.76459C4.31027 8.86737 3.87058 8.99894 3.44075 9.15847C-2.0266 11.1993 -0.798025 16.4666 5.84687 21.5381C6.10674 21.734 6.3734 21.9299 6.64687 22.1258L6.50402 23.0768L6.29993 24.3952L7.42034 24.5034L8.17341 24.5748L8.19177 24.5707Z" fill="#04FDF9"/>
</svg>
